<svg width="605" height="699" viewBox="0 0 605 699" fill="none" xmlns="http://www.w3.org/2000/svg">
<path opacity="0.56" d="M302.5 698.065C469.566 698.065 605 674.896 605 646.315C605 617.735 469.566 594.566 302.5 594.566C135.434 594.566 0 617.735 0 646.315C0 674.896 135.434 698.065 302.5 698.065Z" fill="#D2EBFF"/>
<path d="M543.944 445.217C543.944 406.362 516.501 367.423 482.65 367.423C448.798 367.423 421.355 406.362 421.355 445.217C421.355 484.071 448.798 515.575 482.65 515.575C516.501 515.575 543.944 484.075 543.944 445.217Z" fill="#67B8EF"/>
<path opacity="0.25" d="M482.65 367.423C477.272 367.467 471.944 368.469 466.918 370.381C493.132 380.051 512.476 412.618 512.476 445.217C512.476 477.816 493.132 505.166 466.918 513.151C472.013 514.732 477.315 515.549 482.65 515.575C516.501 515.575 543.944 484.075 543.944 445.217C543.944 406.358 516.501 367.423 482.65 367.423Z" fill="#34648C"/>
<path d="M185.928 445.217C185.928 406.362 158.486 367.423 124.634 367.423C90.782 367.423 63.3393 406.35 63.3393 445.217C63.3393 484.084 90.782 515.575 124.634 515.575C158.486 515.575 185.928 484.075 185.928 445.217Z" fill="#67B8EF"/>
<path opacity="0.25" d="M124.634 367.423C119.256 367.466 113.928 368.468 108.902 370.381C135.112 380.051 154.461 412.618 154.461 445.217C154.461 477.816 135.112 505.166 108.902 513.151C113.997 514.732 119.299 515.55 124.634 515.575C158.486 515.575 185.928 484.075 185.928 445.217C185.928 406.358 158.502 367.423 124.634 367.423Z" fill="#34648C"/>
<path d="M69.5018 512.225L82.8373 594.82C83.7531 600.49 86.6577 605.649 91.0308 609.373C95.4039 613.097 100.96 615.142 106.704 615.143H147.369C153.112 615.142 158.668 613.097 163.041 609.373C167.415 605.649 170.319 600.49 171.235 594.82L184.57 512.225H69.5018Z" fill="#D2EBFF"/>
<path d="M184.595 512.225H69.5018L71.3526 523.67H160.078L148.581 594.82C147.665 600.49 144.76 605.649 140.387 609.373C136.014 613.097 130.458 615.142 124.715 615.143H147.381C153.124 615.142 158.68 613.097 163.054 609.373C167.427 605.649 170.331 600.49 171.247 594.82L182.744 523.67L184.595 512.225Z" fill="#ACCFE5"/>
<path d="M185.88 488.468H68.2208C65.0342 488.478 61.9809 489.748 59.7277 492.001C57.4744 494.254 56.2043 497.308 56.1947 500.494C56.2032 503.681 57.473 506.735 59.7265 508.989C61.98 511.242 65.0339 512.512 68.2208 512.52H185.88C189.066 512.511 192.12 511.241 194.373 508.987C196.626 506.734 197.896 503.681 197.906 500.494C197.895 497.308 196.625 494.255 194.372 492.002C192.119 489.749 189.066 488.479 185.88 488.468Z" fill="#D2EBFF"/>
<path d="M422.422 512.225L435.757 594.82C436.675 600.49 439.581 605.649 443.954 609.372C448.328 613.096 453.884 615.141 459.628 615.143H500.289C506.033 615.141 511.589 613.096 515.962 609.372C520.336 605.649 523.242 600.49 524.159 594.82L537.495 512.225H422.422Z" fill="#D2EBFF"/>
<path d="M537.511 512.225H422.422L424.269 523.67H512.998L501.501 594.82C500.583 600.49 497.678 605.649 493.304 609.372C488.931 613.096 483.375 615.141 477.631 615.143H500.297C506.041 615.141 511.597 613.096 515.97 609.372C520.344 605.649 523.25 600.49 524.167 594.82L535.664 523.67L537.511 512.225Z" fill="#ACCFE5"/>
<path d="M538.796 488.468H421.137C417.95 488.478 414.897 489.748 412.644 492.001C410.39 494.254 409.12 497.308 409.111 500.494C409.119 503.681 410.389 506.735 412.642 508.989C414.896 511.242 417.95 512.512 421.137 512.52H538.796C541.983 512.512 545.037 511.242 547.29 508.989C549.544 506.735 550.813 503.681 550.822 500.494C550.812 497.308 549.542 494.254 547.289 492.001C545.036 489.748 541.982 488.478 538.796 488.468Z" fill="#D2EBFF"/>
<path d="M446.628 349.371H520.732C525.403 349.39 529.897 347.585 533.256 344.339C536.615 341.093 538.574 336.664 538.715 331.995C538.715 331.773 538.715 331.551 538.715 331.324C538.715 327.11 537.754 322.952 535.906 319.165C534.057 315.378 531.369 312.062 528.046 309.471C524.724 306.879 520.854 305.079 516.731 304.208C512.607 303.336 508.34 303.417 504.253 304.443C503.061 299.073 500.033 294.287 495.692 290.908C491.351 287.53 485.968 285.771 480.469 285.934C474.971 286.097 469.701 288.173 465.568 291.802C461.435 295.432 458.697 300.39 457.825 305.821C454.292 304.852 450.581 304.716 446.986 305.427C443.391 306.137 440.01 307.672 437.11 309.913C434.21 312.153 431.871 315.036 430.276 318.336C428.682 321.635 427.876 325.26 427.922 328.924C427.962 333.028 429.076 337.051 431.155 340.59C432.744 343.276 435.008 345.5 437.722 347.04C440.437 348.581 443.507 349.384 446.628 349.371Z" fill="#073A93"/>
<path d="M419.957 84.6835L154.541 84.1299C144.602 84.1426 135.072 88.0867 128.031 95.1013C120.99 102.116 117.01 111.631 116.96 121.57L116.075 574.166C116.087 584.105 120.032 593.636 127.046 600.677C134.061 607.718 143.576 611.698 153.515 611.748L418.93 612.302C428.869 612.289 438.4 608.345 445.441 601.33C452.482 594.316 456.462 584.8 456.512 574.861L457.393 122.265C457.38 112.327 453.437 102.797 446.423 95.7563C439.409 88.7153 429.895 84.7347 419.957 84.6835Z" fill="#89CAF7"/>
<path d="M417.532 115.682L388.416 115.622C387.206 115.619 386.014 115.916 384.947 116.487C383.879 117.058 382.971 117.886 382.302 118.895L375.433 129.256C371.928 134.541 367.167 138.874 361.577 141.867C355.986 144.86 349.741 146.42 343.399 146.406L230.78 146.172C224.438 146.158 218.199 144.572 212.621 141.556C207.042 138.54 202.299 134.187 198.815 128.889L191.986 118.499C191.322 117.486 190.416 116.654 189.351 116.078C188.286 115.502 187.095 115.199 185.884 115.197L156.768 115.137C155.807 115.135 154.854 115.322 153.965 115.688C153.076 116.054 152.268 116.592 151.587 117.27C150.906 117.949 150.365 118.755 149.996 119.642C149.626 120.53 149.435 121.482 149.434 122.443L148.557 573.423C148.555 574.384 148.742 575.336 149.108 576.225C149.473 577.113 150.011 577.921 150.689 578.602C151.367 579.284 152.172 579.824 153.059 580.194C153.947 580.564 154.898 580.755 155.859 580.757L416.627 581.299C417.588 581.301 418.54 581.114 419.429 580.748C420.318 580.382 421.125 579.845 421.807 579.167C422.488 578.489 423.028 577.683 423.398 576.796C423.768 575.909 423.959 574.958 423.961 573.997L424.842 123.017C424.845 122.055 424.657 121.102 424.291 120.213C423.924 119.324 423.386 118.516 422.707 117.834C422.029 117.153 421.222 116.613 420.334 116.243C419.446 115.874 418.494 115.683 417.532 115.682Z" fill="#D2EBFF"/>
<path d="M386.517 492.451L177.915 492.018C171.98 492.006 167.16 496.807 167.147 502.741L166.902 620.933C166.889 626.867 171.69 631.688 177.625 631.7L386.227 632.134C392.161 632.146 396.982 627.345 396.994 621.411L397.239 503.219C397.252 497.285 392.451 492.464 386.517 492.451Z" fill="#073A93"/>
<path d="M370.636 612.936L197.368 612.839C196.725 612.839 196.109 613.094 195.654 613.549C195.199 614.004 194.944 614.621 194.944 615.264L194.887 615.478C194.887 615.796 194.95 616.111 195.072 616.406C195.194 616.7 195.372 616.967 195.597 617.192C195.822 617.417 196.09 617.596 196.384 617.718C196.678 617.84 196.993 617.902 197.312 617.902L370.579 617.999C371.222 617.999 371.839 617.744 372.294 617.289C372.748 616.835 373.004 616.218 373.004 615.575L373.061 615.361C373.061 614.718 372.805 614.101 372.35 613.646C371.896 613.191 371.279 612.936 370.636 612.936Z" fill="#489BFF"/>
<path d="M370.636 612.936L248.003 612.867V617.907L370.571 617.975C371.214 617.975 371.831 617.72 372.286 617.265C372.74 616.81 372.996 616.194 372.996 615.551L373.052 615.336C373.046 614.699 372.789 614.09 372.337 613.64C371.884 613.191 371.273 612.938 370.636 612.936Z" fill="#89CAF7"/>
<path d="M247.38 621.026C250.471 621.026 252.977 618.52 252.977 615.429C252.977 612.338 250.471 609.832 247.38 609.832C244.289 609.832 241.783 612.338 241.783 615.429C241.783 618.52 244.289 621.026 247.38 621.026Z" fill="white"/>
<path d="M282.157 584.459C300.925 584.459 316.139 569.605 316.139 551.282C316.139 532.959 300.925 518.105 282.157 518.105C263.39 518.105 248.176 532.959 248.176 551.282C248.176 569.605 263.39 584.459 282.157 584.459Z" fill="white"/>
<path d="M276.69 540.432L292.923 548.445C293.606 548.776 294.182 549.293 294.585 549.936C294.988 550.579 295.202 551.323 295.202 552.082C295.202 552.841 294.988 553.585 294.585 554.228C294.182 554.871 293.606 555.388 292.923 555.719L276.69 563.732C276.072 564.042 275.385 564.188 274.694 564.156C274.004 564.125 273.333 563.917 272.746 563.552C272.159 563.187 271.676 562.677 271.342 562.072C271.008 561.467 270.834 560.787 270.838 560.095V544.069C270.834 543.378 271.008 542.697 271.342 542.092C271.676 541.487 272.159 540.977 272.746 540.612C273.333 540.248 274.004 540.039 274.694 540.008C275.385 539.976 276.072 540.122 276.69 540.432Z" fill="#073A93"/>
<path d="M536.403 150.094L341.116 149.688C335.561 149.677 331.049 154.171 331.037 159.726L330.807 270.373C330.796 275.928 335.29 280.44 340.844 280.452L536.131 280.858C541.686 280.869 546.199 276.375 546.21 270.82L546.44 160.173C546.452 154.618 541.958 150.105 536.403 150.094Z" fill="#489BFF"/>
<path d="M488.962 181.099H388.283C386.475 181.104 384.742 181.825 383.463 183.104C382.184 184.382 381.463 186.115 381.458 187.924C381.463 189.732 382.184 191.465 383.463 192.744C384.742 194.023 386.475 194.744 388.283 194.749H488.962C490.769 194.739 492.499 194.016 493.777 192.739C495.056 191.461 495.779 189.731 495.791 187.924C495.779 186.117 495.056 184.387 493.777 183.109C492.499 181.832 490.769 181.109 488.962 181.099Z" fill="#073A93"/>
<path d="M465.075 212.667H412.174C410.365 212.673 408.632 213.393 407.353 214.672C406.074 215.951 405.354 217.684 405.348 219.493C405.354 221.301 406.074 223.034 407.353 224.313C408.632 225.592 410.365 226.313 412.174 226.318H465.075C466.883 226.313 468.616 225.592 469.895 224.313C471.174 223.034 471.895 221.301 471.9 219.493C471.895 217.684 471.174 215.951 469.895 214.672C468.616 213.393 466.883 212.673 465.075 212.667Z" fill="#073A93"/>
<path d="M481.571 243.799H395.678C393.87 243.805 392.137 244.526 390.858 245.804C389.579 247.083 388.858 248.816 388.853 250.625C388.858 252.433 389.579 254.166 390.858 255.445C392.137 256.724 393.87 257.445 395.678 257.45H481.571C483.379 257.445 485.112 256.724 486.391 255.445C487.67 254.166 488.391 252.433 488.396 250.625C488.391 248.816 487.67 247.083 486.391 245.804C485.112 244.526 483.379 243.805 481.571 243.799Z" fill="#073A93"/>
<path d="M51.9071 225.089H147.276C153.282 225.113 159.06 222.793 163.382 218.622C167.703 214.45 170.226 208.758 170.415 202.755C170.415 202.468 170.415 202.177 170.415 201.89C170.416 196.467 169.18 191.115 166.802 186.242C164.423 181.368 160.964 177.102 156.688 173.767C152.412 170.431 147.431 168.116 142.125 166.996C136.819 165.875 131.328 165.98 126.068 167.303C124.533 160.394 120.637 154.238 115.052 149.892C109.466 145.547 102.541 143.284 95.4673 143.493C88.3937 143.703 81.6144 146.372 76.2962 151.04C70.978 155.709 67.4536 162.086 66.3296 169.072C60.4929 167.468 54.3102 167.64 48.5721 169.568C42.834 171.496 37.8012 175.091 34.1173 179.894C30.4334 184.697 28.2659 190.49 27.8917 196.532C27.5176 202.574 28.954 208.59 32.0171 213.811C34.0638 217.26 36.9754 220.114 40.4639 222.092C43.9524 224.07 47.8969 225.104 51.9071 225.089Z" fill="#67B8EF"/>
<path d="M313.273 63.4479H387.378C392.049 63.4668 396.543 61.661 399.902 58.4152C403.261 55.1694 405.219 50.7402 405.361 46.0714C405.361 45.8491 405.361 45.6269 405.361 45.4006C405.361 41.1865 404.4 37.0279 402.551 33.241C400.703 29.4541 398.015 26.1387 394.692 23.5469C391.369 20.955 387.499 19.1551 383.376 18.284C379.253 17.4128 374.986 17.4934 370.899 18.5196C369.706 13.1495 366.679 8.36312 362.338 4.9847C357.997 1.60627 352.614 -0.152782 347.115 0.0104146C341.617 0.173611 336.347 2.24884 332.214 5.87879C328.081 9.50873 325.343 14.4662 324.471 19.8976C320.937 18.9279 317.227 18.7928 313.632 19.5029C310.037 20.2129 306.656 21.7486 303.756 23.9889C300.856 26.2292 298.517 29.1128 296.922 32.4121C295.328 35.7113 294.521 39.336 294.568 43.0001C294.608 47.1046 295.722 51.127 297.8 54.6667C299.39 57.3526 301.654 59.5762 304.368 61.1166C307.083 62.657 310.153 63.4607 313.273 63.4479Z" fill="#489BFF"/>
<path d="M258.889 266.224L23.6359 265.735C16.945 265.721 11.5097 271.134 11.4958 277.825L11.2189 411.118C11.205 417.809 16.6178 423.244 23.3088 423.258L258.561 423.747C265.252 423.761 270.688 418.348 270.701 411.657L270.978 278.364C270.992 271.673 265.579 266.238 258.889 266.224Z" fill="#FFAA45"/>
<path d="M245.626 317.698H138.898C137.697 317.701 136.546 318.18 135.696 319.029C134.846 319.879 134.368 321.03 134.364 322.232C134.368 323.434 134.846 324.586 135.696 325.436C136.545 326.286 137.697 326.766 138.898 326.77H245.626C246.829 326.767 247.981 326.288 248.832 325.437C249.682 324.587 250.161 323.434 250.164 322.232C250.16 321.03 249.68 319.879 248.83 319.029C247.98 318.18 246.828 317.701 245.626 317.698Z" fill="white"/>
<path d="M221.59 340.077H138.898C137.697 340.08 136.546 340.559 135.696 341.409C134.846 342.258 134.368 343.41 134.364 344.611C134.368 345.813 134.846 346.965 135.696 347.815C136.545 348.665 137.697 349.145 138.898 349.149H221.59C222.792 349.145 223.944 348.665 224.794 347.815C225.645 346.965 226.124 345.813 226.128 344.611C226.124 343.409 225.644 342.258 224.794 341.408C223.944 340.559 222.792 340.08 221.59 340.077Z" fill="white"/>
<path d="M210.255 361.39H138.898C136.394 361.39 134.364 363.419 134.364 365.924C134.364 368.428 136.394 370.458 138.898 370.458H210.255C212.759 370.458 214.789 368.428 214.789 365.924C214.789 363.419 212.759 361.39 210.255 361.39Z" fill="white"/>
<path d="M90.0948 321.488C89.9821 324.848 88.8829 328.099 86.9343 330.838C84.9856 333.577 82.2738 335.681 79.137 336.889C76.0002 338.097 72.5773 338.354 69.2951 337.629C66.0129 336.905 63.0168 335.229 60.6804 332.813C58.3439 330.397 56.7707 327.346 56.1567 324.041C55.5428 320.736 55.9153 317.324 57.228 314.23C58.5406 311.135 60.7352 308.496 63.538 306.641C66.3408 304.785 69.6278 303.796 72.9891 303.797C77.6032 303.875 81.9972 305.783 85.2049 309.101C88.4127 312.418 90.1715 316.874 90.0948 321.488Z" fill="white"/>
<path d="M94.7703 351.921L84.4576 348.563C77.0257 346.151 69.0212 346.151 61.5893 348.563L51.2039 351.929C48.0868 352.939 45.3698 354.91 43.4429 357.56C41.516 360.21 40.4784 363.403 40.4789 366.679V383.361H105.495V366.679C105.497 363.401 104.461 360.207 102.534 357.556C100.607 354.904 97.8887 352.931 94.7703 351.921Z" fill="white"/>
</svg>
