<svg width="141" height="115" viewBox="0 0 141 115" fill="none" xmlns="http://www.w3.org/2000/svg">
<g style="mix-blend-mode:multiply" opacity="0.15">
<g style="mix-blend-mode:multiply" opacity="0.15">
<path d="M122.17 32.219C120.599 33.729 120.002 36.077 121.5 37.89C122.217 38.7241 123.22 39.2594 124.312 39.3904C125.404 39.5215 126.506 39.2388 127.4 38.598C131.654 35.314 127.219 29.255 122.628 30.51C122.456 30.5636 122.308 30.6763 122.212 30.8282C122.115 30.9801 122.075 31.1613 122.099 31.3399C122.123 31.5185 122.209 31.6828 122.342 31.8038C122.476 31.9248 122.648 31.9946 122.828 32.001C124.196 31.9111 125.554 32.288 126.68 33.07C127.216 33.5599 127.54 34.2392 127.583 34.9639C127.626 35.6887 127.386 36.4018 126.912 36.952C124.412 40.028 120.063 35.498 122.691 32.746C122.756 32.6751 122.791 32.5819 122.789 32.4858C122.787 32.3898 122.748 32.2982 122.68 32.2302C122.612 32.1623 122.52 32.1232 122.424 32.1211C122.328 32.119 122.235 32.1541 122.164 32.219H122.17Z" fill="#3D3D3D"/>
</g>
<g style="mix-blend-mode:multiply" opacity="0.15">
<path d="M19.792 17.293C18.9978 16.934 18.1251 16.7842 17.2567 16.8578C16.3883 16.9313 15.5532 17.2257 14.8307 17.7131C14.1082 18.2005 13.5224 18.8646 13.129 19.6422C12.7356 20.4198 12.5476 21.2852 12.583 22.156C12.638 23.51 13.183 25.056 12.317 26.098C11.651 26.907 10.463 26.983 9.50899 27.414C8.61614 27.8582 7.92464 28.624 7.57361 29.5574C7.22259 30.4908 7.23809 31.5225 7.61699 32.445C8.06299 33.426 8.948 34.329 8.779 35.394C8.69772 35.7338 8.5426 36.0515 8.32466 36.3246C8.10672 36.5977 7.83131 36.8194 7.51799 36.974C6.91299 37.321 6.23399 37.518 5.60799 37.825C4.48306 38.4277 3.54918 39.3331 2.91193 40.4388C2.27468 41.5445 1.95949 42.8065 2.00199 44.082C2.0719 45.3552 2.41856 46.5979 3.01786 47.7234C3.61715 48.8489 4.45464 49.8302 5.47199 50.599C7.53151 52.1243 10.0156 52.9692 12.578 53.016C15.1467 53.2064 17.6951 52.4403 19.733 50.865C21.1434 49.56 22.2123 47.929 22.846 46.115C24.1837 42.7161 24.7203 39.0547 24.414 35.415C24.093 31.656 22.878 28.015 22.614 24.248C22.5931 22.9835 22.475 21.7224 22.261 20.476C22.1506 19.8521 21.9177 19.2562 21.5756 18.7229C21.2335 18.1896 20.7891 17.7294 20.268 17.369" fill="#3D3D3D"/>
</g>
<g style="mix-blend-mode:multiply" opacity="0.15">
<path d="M19.213 17.778C19.9501 16.2748 21.0134 14.9551 22.3255 13.9152C23.6375 12.8753 25.1652 12.1414 26.797 11.767C28.8079 11.2586 30.9367 11.5298 32.756 12.526C33.6487 13.0383 34.3772 13.794 34.8566 14.7048C35.3359 15.6157 35.5462 16.6441 35.463 17.67C35.1662 18.9033 34.737 20.1009 34.183 21.242C33.911 21.8165 33.7894 22.4507 33.8295 23.085C33.8695 23.7194 34.0699 24.3332 34.412 24.869C35.134 25.749 36.373 25.969 37.358 26.535C38.0668 26.9443 38.6481 27.5425 39.0368 28.2628C39.4256 28.9832 39.6065 29.7974 39.5596 30.6146C39.5126 31.4318 39.2395 32.2199 38.7708 32.8909C38.302 33.562 37.6561 34.0896 36.905 34.415C37.6486 34.5013 38.3655 34.7438 39.0088 35.1266C39.6521 35.5095 40.2071 36.024 40.6375 36.6365C41.0679 37.249 41.364 37.9455 41.5062 38.6805C41.6485 39.4154 41.6338 40.1721 41.463 40.901C40.8097 42.9631 39.3734 44.6865 37.463 45.701C34.9183 47.268 32.0172 48.1627 29.032 48.301C25.88 48.443 22.389 47.511 20.675 44.862C19.549 43.122 19.375 40.953 19.251 38.884C18.871 32.642 18.609 26.394 18.351 20.146C18.2622 19.142 18.314 18.1306 18.505 17.141" fill="#3D3D3D"/>
</g>
<g style="mix-blend-mode:multiply" opacity="0.15">
<path d="M29.818 45.978L58.076 56.578L55.376 45.166L62.726 43.299C62.726 43.299 70.631 65.607 65.141 66.199C55.53 67.245 40.987 63.439 40.987 63.439L29.818 45.978Z" fill="#3D3D3D"/>
</g>
<g style="mix-blend-mode:multiply" opacity="0.15">
<path d="M27.347 94.678C27.347 94.678 61.487 57.415 84.534 65.551C107.581 73.687 117.312 111.639 117.312 111.639L98.955 111.339C98.955 111.339 84.455 82.674 77.383 83.784C70.311 84.894 48.46 112.178 48.46 112.178L27.347 94.678Z" fill="#3D3D3D"/>
</g>
<g style="mix-blend-mode:multiply" opacity="0.15">
<path d="M38.148 72.052L39.565 93.916C32.206 102.963 6.58698 91.265 6.58698 91.265L6.28698 82.124L5.68698 60.353C6.27698 51.682 14.329 47.427 14.329 47.427C18.4075 45.6217 22.8555 44.8078 27.309 45.052C32.084 45.288 33.264 47.574 35.231 51.932C36.827 55.452 41.14 61.186 38.148 72.052Z" fill="#3D3D3D"/>
</g>
<g style="mix-blend-mode:multiply" opacity="0.15">
<path d="M11.375 95.384C11.375 95.384 7.45699 111.332 19.399 113.846C31.341 116.36 75.263 110.479 86.699 111.485C98.135 112.491 130.673 114.385 130.673 114.385L133.055 95.447C133.055 95.447 82.427 93.02 76.704 94.442C70.981 95.864 11.375 95.384 11.375 95.384Z" fill="#3D3D3D"/>
</g>
<g style="mix-blend-mode:multiply" opacity="0.15">
<path d="M17.101 67.503C17.101 67.503 13.52 88.603 18.57 88.086C35.181 86.378 45.07 86.147 45.07 86.147L47.823 91.864C47.887 92.838 16.366 101.864 11.301 98.877C7.72499 96.771 2.02799 91.097 4.61399 74.141L5.22499 68.458L17.101 67.503Z" fill="#3D3D3D"/>
</g>
<g style="mix-blend-mode:multiply" opacity="0.15">
<path d="M32.089 97.798L32.055 96.384L52.904 93.44L58.439 74.088L81.539 73.527L75.302 94.478L32.089 97.798Z" fill="#3D3D3D"/>
</g>
<g style="mix-blend-mode:multiply" opacity="0.15">
<path d="M69.566 83.26C69.5742 83.5981 69.4819 83.931 69.3009 84.2167C69.1199 84.5024 68.8582 84.728 68.549 84.8649C68.2398 85.0019 67.8969 85.0441 67.5637 84.9862C67.2305 84.9283 66.9219 84.7729 66.677 84.5396C66.4322 84.3063 66.2619 84.0057 66.1879 83.6757C66.1139 83.3457 66.1394 83.0011 66.2612 82.6856C66.383 82.3701 66.5957 82.0978 66.8722 81.9031C67.1488 81.7085 67.4769 81.6002 67.815 81.592C68.0395 81.5865 68.2628 81.6253 68.4723 81.7062C68.6818 81.7871 68.8733 81.9084 69.0359 82.0633C69.1985 82.2182 69.329 82.4036 69.42 82.6089C69.5109 82.8143 69.5605 83.0355 69.566 83.26Z" fill="#3D3D3D"/>
</g>
<g style="mix-blend-mode:multiply" opacity="0.41">
<path d="M70.254 83.243C70.2655 83.7165 70.1363 84.1829 69.8828 84.5831C69.6293 84.9832 69.2628 85.2992 68.8297 85.4911C68.3966 85.6829 67.9163 85.742 67.4495 85.6609C66.9828 85.5798 66.5507 85.3621 66.2077 85.0353C65.8647 84.7086 65.6263 84.2874 65.5227 83.8252C65.4191 83.363 65.4549 82.8804 65.6255 82.4385C65.7962 81.9966 66.094 81.6152 66.4814 81.3426C66.8689 81.07 67.3284 80.9184 67.802 80.907C68.4369 80.8917 69.0519 81.1292 69.5117 81.5672C69.9715 82.0053 70.2385 82.6081 70.254 83.243Z" fill="#3D3D3D"/>
</g>
<g style="mix-blend-mode:multiply" opacity="0.15">
<path d="M7.96399 53.506C7.96399 53.506 4.08999 57.226 3.22299 71.306L18.223 69.646C18.223 69.646 20.718 45.668 7.96399 53.506Z" fill="#3D3D3D"/>
</g>
<g style="mix-blend-mode:multiply" opacity="0.15">
<path d="M118.044 11.172C118.044 11.172 123.36 23.109 124.844 22.484C126.328 21.859 140.056 13.341 140.056 13.341C140.056 13.341 134.429 2.65298 133.256 2.02898C132.083 1.40498 118.044 11.172 118.044 11.172Z" fill="#3D3D3D"/>
</g>
<g style="mix-blend-mode:multiply" opacity="0.15">
<path d="M133.254 2.02899C133.001 3.12341 132.663 4.19636 132.243 5.23799C131.556 7.19599 130.574 9.89 129.459 12.853L129.379 13.066L129.304 13.266L129.093 13.231C126.018 12.731 123.249 12.251 121.252 11.879C120.165 11.7289 119.092 11.4925 118.042 11.172C119.139 11.201 120.232 11.317 121.311 11.519C123.323 11.798 126.101 12.219 129.177 12.719L128.891 12.884L128.972 12.67C130.087 9.707 131.124 7.03499 131.898 5.10899C132.269 4.04836 132.722 3.01851 133.254 2.02899Z" fill="#3D3D3D"/>
</g>
<g style="mix-blend-mode:multiply" opacity="0.15">
<path d="M123.095 21.078C123.232 19.5879 123.542 18.1187 124.018 16.7C124.327 15.2355 124.806 13.812 125.444 12.458C125.306 13.9483 124.996 15.4177 124.521 16.837C124.21 18.3006 123.731 19.7236 123.095 21.078Z" fill="#3D3D3D"/>
</g>
<g style="mix-blend-mode:multiply" opacity="0.15">
<path d="M139.148 10.966C136.278 10.8632 133.432 10.4123 130.671 9.62298C132.109 9.58911 133.545 9.72844 134.95 10.038C136.382 10.1774 137.791 10.489 139.148 10.966Z" fill="#3D3D3D"/>
</g>
<g style="mix-blend-mode:multiply" opacity="0.15">
<path d="M15.475 23.997L15.814 28.467C15.814 28.467 12.014 28.979 13.097 32.445C14.18 35.911 16.78 34.395 16.78 34.395C16.78 34.395 17.429 43.277 26.528 40.46C33.769 38.219 33.328 28.842 32.407 20.848C32.3213 20.1154 32.0851 19.4085 31.7132 18.7716C31.3413 18.1347 30.8418 17.5815 30.2461 17.1467C29.6503 16.712 28.9711 16.4051 28.2511 16.2452C27.531 16.0854 26.7858 16.0761 26.062 16.218L20.592 17.284C19.0645 17.5813 17.6995 18.4292 16.7561 19.6668C15.8128 20.9044 15.3569 22.4454 15.475 23.997Z" fill="#3D3D3D"/>
</g>
<g style="mix-blend-mode:multiply" opacity="0.15">
<path d="M15.814 32.178L18.265 45.251C18.3959 45.9491 18.6673 46.6133 19.0627 47.2034C19.458 47.7934 19.9691 48.297 20.565 48.6836C21.1609 49.0702 21.829 49.3317 22.529 49.4523C23.229 49.5728 23.9461 49.5499 24.637 49.385C25.9381 49.0747 27.0714 48.2788 27.8048 47.1602C28.5382 46.0416 28.8162 44.6849 28.582 43.368L27.254 35.878L15.814 32.178Z" fill="#3D3D3D"/>
</g>
<g style="mix-blend-mode:multiply" opacity="0.15">
<path d="M25.878 32.323C25.913 32.298 25.987 32.44 26.153 32.459C26.319 32.478 26.562 32.307 26.622 31.952C26.684 31.5034 26.6796 31.0482 26.609 30.601C26.566 30.025 26.524 29.456 26.48 28.859C26.2995 27.3665 26.2924 25.8581 26.459 24.364C26.8095 25.826 26.9907 27.3235 26.999 28.827C27.03 29.427 27.059 29.994 27.088 30.571C27.1414 31.0691 27.1031 31.5727 26.975 32.057C26.855 32.508 26.39 32.788 26.1 32.657C25.81 32.526 25.854 32.32 25.878 32.323Z" fill="#3D3D3D"/>
</g>
<g style="mix-blend-mode:multiply" opacity="0.15">
<path d="M28.83 39.548C28.87 39.596 28.508 39.995 27.761 40.425C26.7736 40.9783 25.6652 41.2802 24.5336 41.3041C23.402 41.328 22.2819 41.0731 21.272 40.562C20.506 40.162 20.129 39.781 20.172 39.731C21.5406 40.365 23.0209 40.7225 24.528 40.783C26.0291 40.6573 27.4908 40.2376 28.83 39.548Z" fill="#3D3D3D"/>
</g>
<g style="mix-blend-mode:multiply" opacity="0.15">
<path d="M27.054 34.157C27.105 34.194 26.988 34.487 26.585 34.771C26.3167 34.9549 26.0099 35.0749 25.688 35.1219C25.3662 35.1688 25.0379 35.1415 24.7282 35.042C24.4186 34.9425 24.1358 34.7734 23.9016 34.5477C23.6674 34.322 23.4879 34.0457 23.377 33.74C23.215 33.274 23.29 32.968 23.353 32.968C23.432 32.961 23.494 33.232 23.71 33.583C23.9669 34.0422 24.3884 34.387 24.8894 34.5477C25.3905 34.7084 25.9339 34.6731 26.41 34.449C26.784 34.29 26.992 34.106 27.054 34.157Z" fill="#3D3D3D"/>
</g>
<g style="mix-blend-mode:multiply" opacity="0.15">
<path d="M15.528 32.878C15.528 32.939 15.306 33.047 14.91 32.93C14.7859 32.8894 14.6724 32.8216 14.5779 32.7314C14.4834 32.6413 14.4103 32.5311 14.364 32.409C14.3023 32.2492 14.2942 32.0737 14.341 31.909C14.3695 31.8106 14.4205 31.7202 14.4899 31.6448C14.5593 31.5695 14.6453 31.5114 14.741 31.475C14.8794 31.4164 15.034 31.4085 15.1776 31.4528C15.3212 31.4971 15.4446 31.5906 15.526 31.717L15.084 31.946C14.795 31.215 14.655 30.654 14.763 30.606C14.871 30.558 15.193 31.039 15.541 31.744L15.099 31.974C15.0736 31.9573 15.0444 31.9474 15.0141 31.9453C14.9838 31.9432 14.9534 31.9489 14.926 31.962C14.826 31.992 14.785 32.107 14.817 32.262C14.8535 32.4019 14.9423 32.5225 15.065 32.599C15.307 32.756 15.534 32.802 15.528 32.878Z" fill="#3D3D3D"/>
</g>
<g style="mix-blend-mode:multiply" opacity="0.15">
<path d="M29.522 26.608C29.382 26.639 29.195 26.345 29.106 25.95C29.017 25.555 29.058 25.209 29.199 25.177C29.34 25.145 29.525 25.44 29.614 25.835C29.703 26.23 29.662 26.578 29.522 26.608Z" fill="#3D3D3D"/>
</g>
<g style="mix-blend-mode:multiply" opacity="0.15">
<path d="M21.818 27.324C21.68 27.362 21.478 27.073 21.369 26.678C21.26 26.283 21.282 25.931 21.421 25.892C21.56 25.853 21.761 26.143 21.87 26.539C21.979 26.935 21.954 27.285 21.818 27.324Z" fill="#3D3D3D"/>
</g>
<g style="mix-blend-mode:multiply" opacity="0.15">
<path d="M22.533 24.07C22.489 24.211 22.08 24.206 21.625 24.332C21.17 24.458 20.813 24.651 20.705 24.55C20.597 24.449 20.879 23.989 21.493 23.829C22.107 23.669 22.587 23.94 22.533 24.07Z" fill="#3D3D3D"/>
</g>
<g style="mix-blend-mode:multiply" opacity="0.15">
<path d="M30.4 22.823C30.342 22.959 29.891 22.892 29.363 22.944C28.835 22.996 28.401 23.129 28.321 23.005C28.241 22.881 28.644 22.483 29.321 22.425C29.998 22.367 30.465 22.699 30.4 22.823Z" fill="#3D3D3D"/>
</g>
<g style="mix-blend-mode:multiply" opacity="0.15">
<path d="M15.814 28.467C18.353 25.991 19.1 21.867 19.789 18.387C20.9776 19.2344 22.3564 19.7761 23.804 19.9645C25.2515 20.1528 26.7231 19.982 28.089 19.467C28.9419 20.4687 29.9379 21.3391 31.045 22.05C31.1889 22.1693 31.3563 22.2568 31.5364 22.3068C31.7165 22.3568 31.9052 22.3681 32.09 22.34C32.516 22.211 32.705 21.722 32.807 21.289C33.1635 19.8996 33.1121 18.4369 32.659 17.076C32.4278 16.4 32.0565 15.7805 31.5693 15.258C31.0821 14.7355 30.4901 14.3218 29.832 14.044C28.363 13.6017 26.793 13.6268 25.339 14.116C23.1141 14.693 20.9795 15.5747 18.996 16.736C16.9686 17.7591 15.3386 19.4268 14.362 21.477C13.537 23.577 13.541 27.646 15.529 28.705" fill="#3D3D3D"/>
</g>
<g style="mix-blend-mode:multiply" opacity="0.15">
<path d="M26.18 34.642C26.2054 34.8154 26.1884 34.9924 26.1306 35.1578C26.0728 35.3233 25.9759 35.4724 25.848 35.5922C25.7202 35.7121 25.5652 35.7993 25.3964 35.8464C25.2275 35.8935 25.0498 35.899 24.8784 35.8626C24.7069 35.8261 24.5468 35.7487 24.4118 35.637C24.2767 35.5254 24.1706 35.3827 24.1026 35.2211C24.0346 35.0596 24.0067 34.884 24.0212 34.7093C24.0357 34.5346 24.0923 34.366 24.186 34.2179C24.586 33.6179 25.113 33.259 25.42 33.318C25.723 33.388 26.063 33.93 26.18 34.642Z" fill="#3D3D3D"/>
</g>
<g style="mix-blend-mode:multiply" opacity="0.15">
<path d="M23.015 30.493C23.142 31.198 22.27 31.944 21.055 31.998C19.84 32.052 18.904 31.39 18.966 30.677C19.028 29.964 19.909 29.446 20.937 29.397C21.965 29.348 22.889 29.778 23.015 30.493Z" fill="#3D3D3D"/>
</g>
<g style="mix-blend-mode:multiply" opacity="0.15">
<path d="M32.636 29.708C32.778 30.408 32.015 31.157 30.915 31.213C29.815 31.269 28.98 30.604 29.05 29.892C29.1812 29.5322 29.4154 29.219 29.7234 28.9915C30.0314 28.764 30.3996 28.6322 30.7821 28.6126C31.1645 28.593 31.5443 28.6864 31.8739 28.8812C32.2036 29.076 32.4687 29.3635 32.636 29.708Z" fill="#3D3D3D"/>
</g>
<g style="mix-blend-mode:multiply" opacity="0.15">
<path d="M15.709 40.297C15.3935 38.1748 15.2834 36.0272 15.38 33.884C15.9755 35.9689 16.0881 38.1621 15.709 40.297Z" fill="#3D3D3D"/>
</g>
<g style="mix-blend-mode:multiply" opacity="0.15">
<path d="M30.807 45.887C28.347 44.91 47.261 51.932 47.261 51.932L45.342 64.87L38.148 62.51L30.807 45.887Z" fill="#3D3D3D"/>
</g>
<g style="mix-blend-mode:multiply" opacity="0.15">
<path d="M19.554 16.619C19.85 16.1673 20.0496 15.6593 20.1403 15.127C20.231 14.5946 20.2108 14.0492 20.081 13.525C20.0052 13.0872 19.7962 12.6834 19.4825 12.3688C19.1687 12.0542 18.7656 11.844 18.328 11.767C17.8175 11.7665 17.3276 11.9686 16.966 12.329C16.5058 12.7561 16.2026 13.3254 16.1049 13.9456C16.0073 14.5658 16.1209 15.2008 16.4275 15.7487C16.7342 16.2965 17.216 16.7254 17.7957 16.9665C18.3754 17.2076 19.0193 17.2468 19.624 17.078" fill="#3D3D3D"/>
</g>
<g style="mix-blend-mode:multiply" opacity="0.15">
<path d="M132.554 99.478C132.554 99.478 138.706 90.658 137.954 93.997C137.202 97.336 130.954 112.177 130.954 112.177L132.554 99.478Z" fill="#3D3D3D"/>
</g>
<g style="mix-blend-mode:multiply" opacity="0.15">
<path d="M43.325 86.149C43.325 86.149 51.453 83.599 51.174 84.438C50.895 85.277 49.512 85.308 48.129 86.66C48.129 86.66 57.216 86.76 56.779 87.507C56.342 88.254 50.427 88.444 50.392 88.571C50.357 88.698 56.861 88.858 56.715 89.55C56.569 90.242 50.524 90.074 50.524 90.074C50.524 90.074 56.124 90.674 56.012 91.416C55.9 92.158 50.731 91.624 50.731 91.624C50.731 91.624 55.055 92.119 54.943 92.795C54.874 93.207 42.282 93.301 42.256 93.604C42.243 93.762 43.325 86.149 43.325 86.149Z" fill="#3D3D3D"/>
</g>
<g style="mix-blend-mode:multiply" opacity="0.15">
<path d="M55.909 45.887C55.909 45.887 50.973 38.987 51.853 38.987C52.733 38.987 53.192 40.287 54.901 41.179C54.901 41.179 52.173 32.55 53.018 32.731C53.863 32.912 55.876 38.451 56.007 38.445C56.138 38.439 54.27 32.234 54.971 32.158C55.672 32.082 57.388 37.853 57.388 37.853C57.388 37.853 56.212 32.366 56.954 32.244C57.696 32.122 58.791 37.178 58.791 37.178C58.791 37.178 57.917 32.933 58.591 32.829C59.002 32.766 62.728 43.296 62.728 43.296C62.628 43.296 55.909 45.886 55.909 45.886" fill="#3D3D3D"/>
</g>
<g style="mix-blend-mode:multiply" opacity="0.15">
<path d="M10.386 64.87C10.441 64.865 10.624 65.192 10.634 65.843C10.6338 66.0491 10.5857 66.2524 10.4933 66.4368C10.401 66.6211 10.267 66.7814 10.102 66.905C9.99282 66.988 9.86733 67.0469 9.73376 67.0779C9.60019 67.1089 9.46156 67.1113 9.327 67.085C9.06258 67.0147 8.82708 66.8629 8.654 66.651C8.333 66.276 8.123 66.051 7.793 66.015C7.65396 65.9914 7.51142 65.9992 7.37578 66.0378C7.24014 66.0764 7.11483 66.1448 7.00899 66.238C6.62599 66.589 6.638 66.994 6.56 66.989C6.507 67.022 6.309 66.556 6.741 65.989C6.87509 65.8298 7.04603 65.7058 7.23895 65.6277C7.43188 65.5497 7.64095 65.5199 7.848 65.541C8.09876 65.562 8.33855 65.6532 8.53999 65.804C8.72118 65.9536 8.88852 66.1193 9.03999 66.299C9.55699 67.006 10.24 66.317 10.273 65.808C10.354 65.27 10.301 64.878 10.386 64.87Z" fill="#3D3D3D"/>
</g>
<g style="mix-blend-mode:multiply" opacity="0.15">
<path d="M14.827 61.037C14.794 60.994 14.978 60.667 15.527 60.319C15.7031 60.2117 15.9018 60.1469 16.1072 60.1295C16.3127 60.1122 16.5194 60.1428 16.711 60.219C16.8386 60.2692 16.9541 60.3457 17.0501 60.4436C17.146 60.5415 17.2203 60.6585 17.268 60.787C17.3446 61.0492 17.3376 61.3289 17.248 61.587C17.0761 61.9158 17.0402 62.299 17.148 62.654C17.2004 62.7851 17.2815 62.9028 17.3853 62.9985C17.4891 63.0942 17.6131 63.1654 17.748 63.207C18.248 63.352 18.586 63.131 18.623 63.2C18.678 63.228 18.383 63.64 17.671 63.567C17.4654 63.5354 17.2706 63.454 17.1036 63.3299C16.9366 63.2058 16.8025 63.0428 16.713 62.855C16.6007 62.6298 16.5539 62.3775 16.578 62.127C16.6126 61.8955 16.6678 61.6676 16.743 61.446C17.078 60.638 16.136 60.416 15.682 60.646C15.188 60.861 14.876 61.107 14.827 61.037Z" fill="#3D3D3D"/>
</g>
<g style="mix-blend-mode:multiply" opacity="0.15">
<path d="M14.527 51.489C14.494 51.445 14.678 51.119 15.227 50.771C15.4031 50.6637 15.6017 50.5989 15.8072 50.5815C16.0127 50.5642 16.2194 50.5948 16.411 50.671C16.5385 50.7212 16.6541 50.7977 16.7501 50.8956C16.846 50.9934 16.9203 51.1105 16.968 51.239C17.0446 51.5012 17.0376 51.7809 16.948 52.039C16.7761 52.3678 16.7401 52.7509 16.848 53.106C16.9004 53.2371 16.9815 53.3548 17.0853 53.4505C17.1891 53.5462 17.3131 53.6174 17.448 53.659C17.948 53.804 18.286 53.582 18.323 53.652C18.378 53.679 18.083 54.092 17.372 54.019C17.1662 53.9875 16.9712 53.9062 16.804 53.7821C16.6369 53.658 16.5026 53.4949 16.413 53.307C16.3007 53.0817 16.2539 52.8295 16.278 52.579C16.3126 52.3475 16.3678 52.1196 16.443 51.898C16.778 51.09 15.836 50.868 15.382 51.098C14.888 51.313 14.576 51.559 14.527 51.489Z" fill="#3D3D3D"/>
</g>
<g style="mix-blend-mode:multiply" opacity="0.15">
<path d="M23.996 63.924C23.955 63.961 23.613 63.806 23.219 63.287C23.0972 63.1206 23.0157 62.9283 22.981 62.7251C22.9463 62.5218 22.9593 62.3133 23.019 62.116C23.0583 61.9853 23.1247 61.8644 23.2138 61.7611C23.3028 61.6577 23.4126 61.5742 23.536 61.516C23.791 61.4167 24.0706 61.3992 24.336 61.466C24.6792 61.6062 25.0638 61.6062 25.407 61.466C25.5332 61.4027 25.6437 61.3119 25.7302 61.2002C25.8167 61.0886 25.8772 60.959 25.907 60.821C26.007 60.312 25.758 59.993 25.824 59.95C25.847 59.892 26.283 60.15 26.273 60.865C26.2595 61.0727 26.1954 61.274 26.0863 61.4512C25.9772 61.6285 25.8264 61.7764 25.647 61.882C25.4328 62.0142 25.1857 62.0836 24.934 62.082C24.7003 62.0671 24.4684 62.0316 24.241 61.976C23.407 61.714 23.268 62.671 23.541 63.103C23.789 63.578 24.061 63.869 23.996 63.924Z" fill="#3D3D3D"/>
</g>
<g style="mix-blend-mode:multiply" opacity="0.15">
<path d="M30.454 73.91C30.484 73.956 30.276 74.269 29.701 74.574C29.5174 74.6678 29.3145 74.7177 29.1083 74.7196C28.9021 74.7215 28.6983 74.6754 28.513 74.585C28.3896 74.5256 28.2802 74.4408 28.1918 74.3362C28.1034 74.2316 28.038 74.1095 28 73.978C27.942 73.7096 27.9697 73.4298 28.079 73.178C28.2735 72.8625 28.336 72.4832 28.253 72.122C28.2111 71.9867 28.1394 71.8626 28.0432 71.7588C27.947 71.6549 27.8287 71.574 27.697 71.522C27.21 71.341 26.855 71.536 26.823 71.464C26.77 71.433 27.095 71.044 27.799 71.164C28.0012 71.2113 28.1888 71.3071 28.3456 71.4432C28.5024 71.5793 28.6237 71.7515 28.699 71.945C28.7949 72.1778 28.8233 72.4328 28.781 72.681C28.729 72.9093 28.6567 73.1325 28.565 73.348C28.173 74.13 29.095 74.42 29.565 74.221C30.079 74.059 30.407 73.836 30.454 73.91Z" fill="#3D3D3D"/>
</g>
<g style="mix-blend-mode:multiply" opacity="0.15">
<path d="M38.054 58.161C38.084 58.207 37.876 58.52 37.301 58.825C37.1174 58.9189 36.9145 58.9687 36.7083 58.9706C36.5021 58.9725 36.2983 58.9264 36.113 58.836C35.9894 58.7766 35.8798 58.6917 35.7914 58.5869C35.703 58.4821 35.6377 58.3598 35.6 58.228C35.5415 57.9597 35.5688 57.6799 35.678 57.428C35.8723 57.1124 35.9351 56.7333 35.853 56.372C35.811 56.2367 35.7391 56.1125 35.6427 56.0087C35.5463 55.9048 35.4278 55.8239 35.296 55.772C34.81 55.591 34.455 55.786 34.423 55.714C34.37 55.683 34.694 55.293 35.399 55.414C35.6012 55.4613 35.7888 55.5571 35.9456 55.6932C36.1024 55.8292 36.2237 56.0015 36.299 56.195C36.3949 56.4277 36.4233 56.6828 36.381 56.931C36.329 57.1593 36.2567 57.3825 36.165 57.598C35.772 58.38 36.695 58.67 37.165 58.471C37.679 58.31 38.008 58.088 38.054 58.161Z" fill="#3D3D3D"/>
</g>
<g style="mix-blend-mode:multiply" opacity="0.15">
<path d="M43.237 55.765C43.271 55.721 43.637 55.811 44.118 56.249C44.2681 56.3902 44.3833 56.5643 44.4546 56.7576C44.5259 56.9509 44.5514 57.1581 44.529 57.363C44.5147 57.4995 44.4717 57.6315 44.4027 57.7503C44.3338 57.869 44.2405 57.9719 44.129 58.052C43.8972 58.198 43.6255 58.268 43.352 58.252C42.9893 58.176 42.6112 58.2453 42.299 58.445C42.1867 58.5306 42.0949 58.6402 42.0304 58.7658C41.9658 58.8914 41.9302 59.0298 41.926 59.171C41.92 59.69 42.226 59.958 42.167 60.012C42.155 60.072 41.679 59.899 41.559 59.194C41.5341 58.9874 41.5602 58.7778 41.6349 58.5836C41.7097 58.3894 41.8309 58.2165 41.988 58.08C42.1746 57.9109 42.4051 57.7979 42.653 57.754C42.8852 57.726 43.1194 57.7183 43.353 57.731C44.222 57.837 44.183 56.87 43.837 56.495C43.504 56.065 43.183 55.831 43.237 55.765Z" fill="#3D3D3D"/>
</g>
<g style="mix-blend-mode:multiply" opacity="0.15">
<path d="M22.254 82.054C22.283 82.1 22.076 82.412 21.5 82.718C21.3166 82.8119 21.1137 82.8617 20.9077 82.8635C20.7016 82.8652 20.498 82.8188 20.313 82.728C20.1895 82.6685 20.0799 82.5838 19.9914 82.4792C19.9028 82.3746 19.8372 82.2526 19.799 82.121C19.7413 81.8526 19.7689 81.5729 19.878 81.321C20.0723 81.0051 20.1351 80.6256 20.053 80.264C20.0106 80.1288 19.9386 80.0048 19.8423 79.901C19.7459 79.7972 19.6276 79.7163 19.496 79.664C19.01 79.483 18.655 79.679 18.623 79.607C18.57 79.575 18.894 79.186 19.599 79.307C19.8011 79.354 19.9887 79.4496 20.1456 79.5855C20.3024 79.7215 20.4237 79.8936 20.499 80.087C20.595 80.3197 20.6231 80.5749 20.58 80.823C20.5289 81.0514 20.457 81.2747 20.365 81.49C19.972 82.272 20.895 82.562 21.365 82.364C21.886 82.203 22.215 81.978 22.254 82.054Z" fill="#3D3D3D"/>
</g>
<g style="mix-blend-mode:multiply" opacity="0.15">
<path d="M33.508 66.898C33.464 66.929 33.143 66.735 32.813 66.173C32.7113 65.9937 32.6528 65.7931 32.6422 65.5872C32.6316 65.3813 32.6692 65.1758 32.752 64.987C32.8061 64.8611 32.8861 64.7481 32.9869 64.6554C33.0878 64.5627 33.2071 64.4923 33.337 64.449C33.6017 64.3797 33.8815 64.3951 34.137 64.493C34.4606 64.6739 34.8423 64.7206 35.2 64.623C35.3326 64.5747 35.4526 64.4974 35.5514 64.3967C35.6502 64.2959 35.7252 64.1744 35.771 64.041C35.932 63.548 35.721 63.201 35.792 63.166C35.821 63.112 36.224 63.42 36.129 64.129C36.0909 64.3335 36.0034 64.5256 35.8741 64.6886C35.7448 64.8515 35.5775 64.9804 35.387 65.064C35.1588 65.1696 34.9055 65.2087 34.656 65.177C34.4255 65.1352 34.1992 65.0726 33.98 64.99C33.18 64.631 32.932 65.565 33.15 66.026C33.344 66.532 33.58 66.851 33.508 66.898Z" fill="#3D3D3D"/>
</g>
<g style="mix-blend-mode:multiply" opacity="0.15">
<path d="M35.528 75.041C35.483 75.072 35.162 74.878 34.828 74.316C34.7263 74.1367 34.6678 73.9361 34.6572 73.7302C34.6466 73.5243 34.6842 73.3188 34.767 73.13C34.8211 73.0041 34.9012 72.891 35.002 72.7981C35.1028 72.7052 35.2221 72.6347 35.352 72.591C35.6169 72.5225 35.8965 72.5382 36.152 72.636C36.4757 72.8167 36.8574 72.863 37.215 72.765C37.3475 72.7169 37.4675 72.6397 37.5663 72.5392C37.6651 72.4386 37.7402 72.3173 37.786 72.184C37.947 71.69 37.736 71.344 37.807 71.309C37.836 71.255 38.239 71.563 38.144 72.272C38.1058 72.4763 38.0183 72.6683 37.8892 72.8312C37.7601 72.9941 37.5932 73.1231 37.403 73.207C37.1744 73.3126 36.9208 73.3518 36.671 73.32C36.4409 73.2779 36.215 73.2153 35.996 73.133C35.196 72.774 34.947 73.708 35.165 74.169C35.363 74.678 35.599 74.994 35.528 75.041Z" fill="#3D3D3D"/>
</g>
<g style="mix-blend-mode:multiply" opacity="0.15">
<path d="M19.246 71.567C19.192 71.56 19.085 71.201 19.218 70.567C19.2633 70.3659 19.3549 70.1782 19.4854 70.0187C19.616 69.8592 19.7819 69.7322 19.97 69.648C20.0953 69.5905 20.2314 69.5602 20.3693 69.5591C20.5072 69.5581 20.6438 69.5863 20.77 69.642C21.0122 69.7691 21.2087 69.9687 21.332 70.213C21.563 70.65 21.719 70.913 22.032 71.023C22.1625 71.0764 22.3034 71.1 22.4442 71.0921C22.585 71.0841 22.7223 71.0448 22.846 70.977C23.297 70.719 23.374 70.321 23.446 70.342C23.504 70.322 23.596 70.821 23.046 71.282C22.8803 71.4079 22.6864 71.4914 22.4811 71.5252C22.2757 71.559 22.0653 71.5421 21.868 71.476C21.628 71.4009 21.4141 71.2594 21.251 71.068C21.1085 70.8823 20.983 70.6841 20.876 70.476C20.527 69.676 19.714 70.197 19.566 70.685C19.37 71.185 19.331 71.578 19.246 71.567Z" fill="#3D3D3D"/>
</g>
<g style="mix-blend-mode:multiply" opacity="0.15">
<path d="M33.954 81.62C33.9 81.613 33.793 81.254 33.926 80.62C33.9712 80.4188 34.0627 80.2311 34.1933 80.0715C34.3238 79.912 34.4898 79.7851 34.678 79.701C34.8026 79.6442 34.9379 79.6143 35.0749 79.6133C35.2118 79.6122 35.3475 79.6401 35.473 79.695C35.715 79.8224 35.9114 80.0219 36.035 80.266C36.266 80.702 36.422 80.966 36.735 81.076C36.8656 81.1293 37.0065 81.1528 37.1473 81.1447C37.2882 81.1365 37.4254 81.097 37.549 81.029C38 80.772 38.077 80.374 38.149 80.395C38.207 80.375 38.299 80.873 37.749 81.335C37.583 81.4607 37.3889 81.544 37.1835 81.5778C36.9781 81.6117 36.7675 81.5949 36.57 81.529C36.3302 81.4535 36.1164 81.3121 35.953 81.121C35.8105 80.9349 35.685 80.7365 35.578 80.528C35.229 79.728 34.415 80.249 34.268 80.738C34.074 81.238 34.034 81.633 33.954 81.62Z" fill="#3D3D3D"/>
</g>
<g style="mix-blend-mode:multiply" opacity="0.15">
<path d="M33.524 51.165C33.469 51.159 33.362 50.799 33.495 50.165C33.5406 49.964 33.6322 49.7764 33.7627 49.6169C33.8933 49.4574 34.059 49.3304 34.247 49.246C34.3724 49.1886 34.5085 49.1584 34.6464 49.1573C34.7842 49.1563 34.9208 49.1845 35.047 49.24C35.2891 49.3674 35.4855 49.5669 35.609 49.811C35.839 50.248 35.996 50.511 36.309 50.621C36.4395 50.6745 36.5804 50.6981 36.7212 50.6902C36.8621 50.6822 36.9993 50.6429 37.123 50.575C37.573 50.317 37.65 49.919 37.723 49.941C37.781 49.92 37.873 50.419 37.323 50.88C37.1574 51.0059 36.9634 51.0894 36.7581 51.1232C36.5528 51.1571 36.3423 51.1401 36.145 51.074C35.905 50.9989 35.6911 50.8574 35.528 50.666C35.3856 50.4803 35.2601 50.2821 35.153 50.074C34.804 49.274 33.99 49.795 33.842 50.283C33.648 50.784 33.608 51.178 33.524 51.165Z" fill="#3D3D3D"/>
</g>
<g style="mix-blend-mode:multiply" opacity="0.15">
<path d="M28.72 85.662C28.692 85.709 28.32 85.662 27.786 85.292C27.6192 85.1709 27.483 85.0126 27.388 84.8296C27.2931 84.6467 27.2421 84.4441 27.239 84.238C27.2358 84.101 27.2616 83.9649 27.3147 83.8386C27.3678 83.7123 27.4469 83.5986 27.547 83.505C27.7596 83.3326 28.0208 83.2309 28.294 83.214C28.786 83.174 29.089 83.135 29.315 82.891C29.4154 82.7918 29.4924 82.6715 29.5405 82.5389C29.5886 82.4062 29.6065 82.2645 29.593 82.124C29.534 81.609 29.199 81.381 29.249 81.324C29.249 81.262 29.749 81.375 29.955 82.059C30.0053 82.261 30.0055 82.4723 29.9556 82.6744C29.9058 82.8766 29.8074 83.0635 29.669 83.219C29.5046 83.4094 29.2902 83.55 29.05 83.625C28.823 83.6821 28.5915 83.7189 28.358 83.735C27.482 83.735 27.642 84.693 28.032 85.022C28.418 85.398 28.766 85.59 28.72 85.662Z" fill="#3D3D3D"/>
</g>
<g style="mix-blend-mode:multiply" opacity="0.15">
<path d="M11.28 55.765C11.327 55.738 11.628 55.965 11.902 56.554C11.9855 56.7424 12.024 56.9477 12.0143 57.1536C12.0045 57.3595 11.9469 57.5603 11.846 57.74C11.7802 57.8601 11.6896 57.9649 11.5803 58.0475C11.4711 58.13 11.3455 58.1885 11.212 58.219C10.9416 58.2617 10.6647 58.2187 10.42 58.096C9.974 57.884 9.692 57.766 9.375 57.864C9.23827 57.899 9.11111 57.9641 9.0028 58.0546C8.89449 58.1451 8.80777 58.2587 8.74899 58.387C8.54099 58.863 8.71699 59.228 8.64299 59.256C8.60899 59.307 8.24299 58.961 8.40199 58.265C8.45974 58.0651 8.56545 57.8824 8.70994 57.7327C8.85442 57.5829 9.03329 57.4708 9.23099 57.406C9.4686 57.3233 9.72469 57.309 9.96999 57.365C10.1951 57.4292 10.414 57.5135 10.624 57.617C11.383 58.053 11.724 57.148 11.551 56.668C11.408 56.145 11.204 55.805 11.28 55.765Z" fill="#3D3D3D"/>
</g>
<g style="mix-blend-mode:multiply" opacity="0.15">
<path d="M28.113 52.752C28.161 52.725 28.461 52.952 28.735 53.541C28.8185 53.7294 28.857 53.9346 28.8474 54.1405C28.8379 54.3463 28.7806 54.5471 28.68 54.727C28.6138 54.847 28.523 54.9517 28.4136 55.0343C28.3042 55.1168 28.1786 55.1753 28.045 55.206C27.7746 55.2487 27.4977 55.2057 27.253 55.083C26.808 54.871 26.526 54.753 26.208 54.851C26.0713 54.886 25.9441 54.9511 25.8358 55.0416C25.7275 55.1321 25.6408 55.2457 25.582 55.374C25.375 55.85 25.55 56.215 25.482 56.243C25.447 56.294 25.076 55.948 25.24 55.252C25.2979 55.0522 25.4037 54.8695 25.5481 54.7198C25.6926 54.5701 25.8714 54.4579 26.069 54.393C26.3067 54.3108 26.5627 54.2966 26.808 54.352C27.0332 54.416 27.2521 54.5004 27.462 54.604C28.222 55.04 28.562 54.135 28.39 53.655C28.242 53.132 28.038 52.792 28.113 52.752Z" fill="#3D3D3D"/>
</g>
<g style="mix-blend-mode:multiply" opacity="0.15">
<path d="M17.736 70.466C17.695 70.1236 17.6987 69.7774 17.747 69.436C17.788 68.776 17.864 67.823 17.969 66.647C18.178 64.297 18.508 61.047 18.895 57.472C19.0038 56.623 19.0079 55.7639 18.907 54.914C18.8023 54.1427 18.4983 53.412 18.025 52.794C17.1823 51.7459 16.0085 51.0152 14.696 50.722C13.8005 50.518 12.8813 50.4375 11.964 50.483C11.6238 50.5218 11.2807 50.5299 10.939 50.507C11.2599 50.3745 11.6012 50.298 11.948 50.281C12.8888 50.1549 13.8439 50.1823 14.776 50.362C16.1986 50.6266 17.4828 51.3831 18.404 52.499C18.939 53.176 19.2864 53.9821 19.411 54.836C19.525 55.728 19.525 56.6309 19.411 57.523C19.023 61.11 18.636 64.345 18.333 66.688C18.181 67.858 18.049 68.805 17.947 69.458C17.9215 69.8018 17.8505 70.1408 17.736 70.466Z" fill="#3D3D3D"/>
</g>
<g style="mix-blend-mode:multiply" opacity="0.15">
<path d="M18.404 69.649C15.8866 70.1767 13.3365 70.5338 10.771 70.718C8.2233 71.0747 5.65447 71.2591 3.08197 71.27C5.59966 70.7422 8.15014 70.385 10.716 70.201C13.2633 69.8442 15.8318 69.6598 18.404 69.649Z" fill="#3D3D3D"/>
</g>
<g style="mix-blend-mode:multiply" opacity="0.15">
<path d="M39.232 67.957C39.5912 65.7521 39.4925 63.4969 38.9419 61.3319C38.3914 59.1669 37.4008 57.1384 36.032 55.373C36.5818 55.7607 37.0486 56.2544 37.405 56.825C39.3179 59.4865 40.1528 62.7732 39.742 66.025C39.7013 66.6963 39.5279 67.353 39.232 67.957Z" fill="#3D3D3D"/>
</g>
<g style="mix-blend-mode:multiply" opacity="0.15">
<path d="M79.254 68.201C79.2687 67.3579 79.4684 66.5284 79.839 65.771C80.795 64.266 82.153 64.644 83.468 65.307C84.0608 65.6973 84.7376 65.9414 85.4431 66.0192C86.1485 66.0971 86.8624 66.0066 87.526 65.755C89.801 64.771 90.869 61.339 88.698 59.726C87.998 59.203 87.298 60.065 87.398 60.726C87.529 61.649 87.987 62.665 87.198 63.458C86.14 64.519 84.898 63.628 83.845 63.152C83.2999 62.8835 82.705 62.7314 82.098 62.7052C81.491 62.6791 80.8851 62.7794 80.319 63C78.294 63.819 76.826 66.564 78.433 68.418C78.4948 68.4768 78.5706 68.5188 78.6533 68.54C78.7359 68.5612 78.8226 68.5609 78.905 68.5392C78.9875 68.5174 79.0631 68.4749 79.1245 68.4157C79.1859 68.3565 79.2312 68.2826 79.256 68.201H79.254Z" fill="#3D3D3D"/>
</g>
<g style="mix-blend-mode:multiply" opacity="0.15">
<path d="M84.618 28.798C84.832 30.188 86.276 33.13 87.796 33.536C88.605 33.752 89.207 33.22 89.835 32.787C90.978 32 92.106 31.194 93.235 30.387C93.4536 30.2537 93.6121 30.0409 93.677 29.7932C93.7419 29.5455 93.7082 29.2823 93.583 29.059L90.583 24.444C90.4514 24.2239 90.2387 24.0641 89.9906 23.9991C89.7425 23.934 89.4787 23.9688 89.256 24.096C87.9585 24.9262 86.7153 25.8384 85.534 26.827C84.76 27.54 85.746 28.706 86.625 28.24C87.8794 27.4946 89.0851 26.6702 90.235 25.772L88.908 25.424C89.908 26.962 90.908 28.5003 91.908 30.039L92.256 28.711C91.578 29.194 90.898 29.674 90.222 30.16C89.839 30.434 88.558 31.635 88.131 31.587C87.749 31.544 86.948 30.187 86.714 29.906C86.2721 29.3255 85.7506 28.8101 85.165 28.375C84.865 28.175 84.573 28.506 84.618 28.795V28.798Z" fill="#3D3D3D"/>
</g>
<g style="mix-blend-mode:multiply" opacity="0.15">
<path d="M70.46 43.144C68.888 44.653 68.291 47.002 69.789 48.815C70.506 49.649 71.5093 50.1844 72.6014 50.3154C73.6935 50.4464 74.795 50.1637 75.689 49.523C79.943 46.239 75.509 40.18 70.918 41.434C70.7453 41.487 70.597 41.5996 70.4995 41.7517C70.402 41.9039 70.3617 42.0856 70.3857 42.2647C70.4097 42.4438 70.4965 42.6085 70.6306 42.7296C70.7647 42.8507 70.9374 42.9203 71.118 42.926C72.4859 42.8357 73.8439 43.2122 74.97 43.994C75.5058 44.4839 75.8297 45.1632 75.873 45.8879C75.9163 46.6126 75.6756 47.3257 75.202 47.876C72.702 50.953 68.353 46.422 70.982 43.671C71.0469 43.6001 71.082 43.5069 71.0799 43.4108C71.0778 43.3147 71.0387 43.2232 70.9707 43.1552C70.9028 43.0873 70.8112 43.0481 70.7151 43.046C70.619 43.044 70.5258 43.079 70.455 43.144H70.46Z" fill="#3D3D3D"/>
</g>
<g style="mix-blend-mode:multiply" opacity="0.15">
<path d="M106.62 57.103C106.078 59.917 105.62 62.737 105.185 65.57C105.15 65.7138 105.153 65.8641 105.193 66.0066C105.233 66.1491 105.309 66.2789 105.413 66.3835C105.518 66.4881 105.648 66.5641 105.79 66.6041C105.933 66.6441 106.083 66.6468 106.227 66.612C108.888 66.229 111.54 65.868 114.166 65.287C114.281 65.2528 114.387 65.1933 114.475 65.1128C114.564 65.0324 114.634 64.933 114.679 64.822C114.724 64.711 114.744 64.5913 114.737 64.4717C114.729 64.3521 114.695 64.2357 114.637 64.131C113.16 61.531 111.26 57.821 108.453 56.431C107.739 56.078 106.748 56.842 107.27 57.614C108.212 58.7435 109.224 59.8123 110.301 60.814C111.445 62.0669 112.443 63.4449 113.277 64.922L113.957 63.737C111.205 64.009 108.499 64.499 105.777 64.974L106.849 65.791C107.175 62.943 107.469 60.101 107.683 57.243C107.68 57.1137 107.631 56.9896 107.545 56.8932C107.459 56.7967 107.341 56.7342 107.213 56.7168C107.085 56.6995 106.955 56.7284 106.846 56.7985C106.737 56.8685 106.657 56.9751 106.62 57.099V57.103Z" fill="#3D3D3D"/>
</g>
<g style="mix-blend-mode:multiply" opacity="0.15">
<path d="M94.381 51.878C95.0392 49.0703 95.4531 46.211 95.618 43.332C95.657 42.452 94.218 42.232 94.058 43.121C93.5666 45.9661 93.3233 48.8487 93.331 51.736C93.3348 51.8631 93.3836 51.9848 93.4687 52.0793C93.5538 52.1738 93.6697 52.2351 93.7958 52.2522C93.9218 52.2692 94.0498 52.2409 94.157 52.1724C94.2642 52.1039 94.3436 51.9995 94.381 51.878Z" fill="#3D3D3D"/>
</g>
<g style="mix-blend-mode:multiply" opacity="0.15">
<path d="M124.68 51.454C127.525 51.8905 130.402 52.0796 133.28 52.019C133.475 51.996 133.654 51.9025 133.784 51.756C133.914 51.6096 133.986 51.4204 133.986 51.2245C133.986 51.0285 133.914 50.8394 133.784 50.6929C133.654 50.5465 133.475 50.4529 133.28 50.43C130.468 50.1777 127.639 50.1693 124.826 50.405C124.27 50.445 124.049 51.366 124.684 51.454H124.68Z" fill="#3D3D3D"/>
</g>
<g style="mix-blend-mode:multiply" opacity="0.15">
<path d="M101.818 15.713C104.337 17.1159 106.976 18.2896 109.705 19.22C109.888 19.2618 110.081 19.2377 110.248 19.1519C110.415 19.0661 110.547 18.9241 110.62 18.7507C110.693 18.5774 110.703 18.3839 110.647 18.2042C110.592 18.0244 110.475 17.87 110.317 17.768C107.717 16.5177 105.01 15.5033 102.229 14.737C102.105 14.7063 101.974 14.7209 101.86 14.7781C101.746 14.8354 101.656 14.9315 101.606 15.0492C101.557 15.1669 101.551 15.2985 101.59 15.4202C101.628 15.5419 101.709 15.6457 101.818 15.713Z" fill="#3D3D3D"/>
</g>
<g style="mix-blend-mode:multiply" opacity="0.15">
<path d="M109.838 38.584L109.694 38.457C109.391 38.1537 108.979 37.9833 108.551 37.9833C108.122 37.9833 107.71 38.1537 107.407 38.457C107.104 38.7603 106.933 39.1716 106.933 39.6005C106.933 40.0294 107.104 40.4407 107.407 40.744L107.535 40.887C107.844 41.1697 108.251 41.3221 108.67 41.3127C109.089 41.3033 109.488 41.1326 109.784 40.8363C110.081 40.5399 110.251 40.1408 110.261 39.7218C110.27 39.3028 110.118 38.8964 109.835 38.587L109.838 38.584Z" fill="#3D3D3D"/>
</g>
</g>
<path d="M120.17 30.219C118.599 31.729 118.002 34.077 119.5 35.89C120.217 36.7241 121.22 37.2594 122.312 37.3904C123.404 37.5215 124.506 37.2388 125.4 36.598C129.654 33.314 125.219 27.255 120.628 28.51C120.456 28.5636 120.308 28.6763 120.212 28.8282C120.115 28.9801 120.075 29.1613 120.099 29.3399C120.123 29.5185 120.209 29.6828 120.342 29.8038C120.476 29.9248 120.648 29.9946 120.828 30.001C122.196 29.9111 123.554 30.288 124.68 31.07C125.216 31.5599 125.54 32.2392 125.583 32.9639C125.626 33.6887 125.386 34.4018 124.912 34.952C122.412 38.028 118.063 33.498 120.691 30.746C120.756 30.6751 120.791 30.5819 120.789 30.4858C120.787 30.3898 120.748 30.2982 120.68 30.2302C120.612 30.1623 120.52 30.1232 120.424 30.1211C120.328 30.119 120.235 30.1541 120.164 30.219H120.17Z" fill="#8AA9FC"/>
<path d="M17.792 15.293C16.9978 14.934 16.1251 14.7842 15.2567 14.8578C14.3883 14.9313 13.5532 15.2257 12.8307 15.7131C12.1082 16.2005 11.5224 16.8646 11.129 17.6422C10.7356 18.4198 10.5476 19.2852 10.583 20.156C10.638 21.51 11.183 23.056 10.317 24.098C9.65099 24.907 8.46299 24.983 7.50899 25.414C6.61614 25.8582 5.92464 26.624 5.57361 27.5574C5.22259 28.4908 5.23809 29.5225 5.61699 30.445C6.06299 31.426 6.948 32.329 6.779 33.394C6.69772 33.7338 6.5426 34.0515 6.32466 34.3246C6.10672 34.5977 5.83131 34.8194 5.51799 34.974C4.91299 35.321 4.23399 35.518 3.60799 35.825C2.48306 36.4277 1.54918 37.3331 0.911929 38.4388C0.274683 39.5445 -0.0405067 40.8065 0.0019945 42.082C0.0718965 43.3552 0.418565 44.5979 1.01786 45.7234C1.61715 46.8489 2.45464 47.8302 3.47199 48.599C5.53151 50.1243 8.01555 50.9692 10.578 51.016C13.1467 51.2064 15.6951 50.4403 17.733 48.865C19.1434 47.56 20.2123 45.929 20.846 44.115C22.1837 40.7161 22.7203 37.0547 22.414 33.415C22.093 29.656 20.878 26.015 20.614 22.248C20.5931 20.9835 20.475 19.7224 20.261 18.476C20.1506 17.8521 19.9177 17.2562 19.5756 16.7229C19.2335 16.1896 18.7891 15.7294 18.268 15.369" fill="#251A51"/>
<path d="M17.213 15.778C17.9501 14.2748 19.0134 12.9551 20.3255 11.9152C21.6375 10.8753 23.1652 10.1414 24.797 9.76699C26.8079 9.25863 28.9367 9.52977 30.756 10.526C31.6487 11.0383 32.3772 11.794 32.8566 12.7048C33.3359 13.6157 33.5462 14.6441 33.463 15.67C33.1662 16.9033 32.737 18.1009 32.183 19.242C31.911 19.8165 31.7894 20.4507 31.8295 21.085C31.8695 21.7194 32.0699 22.3332 32.412 22.869C33.134 23.749 34.373 23.969 35.358 24.535C36.0668 24.9443 36.6481 25.5425 37.0368 26.2628C37.4256 26.9832 37.6065 27.7974 37.5596 28.6146C37.5126 29.4318 37.2395 30.2199 36.7708 30.8909C36.302 31.562 35.6561 32.0896 34.905 32.415C35.6486 32.5013 36.3655 32.7438 37.0088 33.1266C37.6521 33.5095 38.2071 34.024 38.6375 34.6365C39.0679 35.249 39.364 35.9455 39.5062 36.6805C39.6485 37.4154 39.6338 38.1721 39.463 38.901C38.8097 40.9631 37.3734 42.6865 35.463 43.701C32.9183 45.268 30.0172 46.1627 27.032 46.301C23.88 46.443 20.389 45.511 18.675 42.862C17.549 41.122 17.375 38.953 17.251 36.884C16.871 30.642 16.609 24.394 16.351 18.146C16.2622 17.142 16.314 16.1306 16.505 15.141" fill="#251A51"/>
<path d="M27.818 43.978L56.076 54.578L53.376 43.166L60.726 41.299C60.726 41.299 68.631 63.607 63.141 64.199C53.53 65.245 38.987 61.439 38.987 61.439L27.818 43.978Z" fill="#F6AEA6"/>
<path d="M25.347 92.678C25.347 92.678 59.487 55.415 82.534 63.551C105.581 71.687 115.312 109.639 115.312 109.639L96.955 109.339C96.955 109.339 82.455 80.674 75.383 81.784C68.311 82.894 46.46 110.178 46.46 110.178L25.347 92.678Z" fill="#55318C"/>
<path d="M36.148 70.052L37.565 91.916C30.206 100.963 4.58698 89.265 4.58698 89.265L4.28698 80.124L3.68698 58.353C4.27698 49.682 12.329 45.427 12.329 45.427C16.4075 43.6217 20.8555 42.8078 25.309 43.052C30.084 43.288 31.264 45.574 33.231 49.932C34.827 53.452 39.14 59.186 36.148 70.052Z" fill="#EDC483"/>
<path d="M9.375 93.384C9.375 93.384 5.45699 109.332 17.399 111.846C29.341 114.36 73.263 108.479 84.699 109.485C96.135 110.491 128.673 112.385 128.673 112.385L131.055 93.447C131.055 93.447 80.427 91.02 74.704 92.442C68.981 93.864 9.375 93.384 9.375 93.384Z" fill="#6338A1"/>
<path d="M15.101 65.503C15.101 65.503 11.52 86.603 16.57 86.086C33.181 84.378 43.07 84.147 43.07 84.147L45.823 89.864C45.887 90.838 14.366 99.864 9.30099 96.877C5.72499 94.771 0.0279906 89.097 2.61399 72.141L3.22499 66.458L15.101 65.503Z" fill="#F6AEA6"/>
<path d="M30.089 95.798L30.055 94.384L50.904 91.44L56.439 72.088L79.539 71.527L73.302 92.478L30.089 95.798Z" fill="#968ABC"/>
<path d="M67.566 81.26C67.5742 81.5981 67.482 81.931 67.301 82.2167C67.1199 82.5024 66.8583 82.728 66.549 82.8649C66.2398 83.0019 65.8969 83.0441 65.5637 82.9862C65.2305 82.9283 64.9219 82.7729 64.6771 82.5396C64.4322 82.3063 64.262 82.0057 64.188 81.6757C64.114 81.3457 64.1395 81.0011 64.2613 80.6856C64.3831 80.3701 64.5957 80.0978 64.8723 79.9031C65.1488 79.7085 65.4769 79.6002 65.815 79.592C66.0395 79.5865 66.2629 79.6253 66.4724 79.7062C66.6819 79.7871 66.8734 79.9084 67.036 80.0633C67.1986 80.2182 67.3291 80.4036 67.42 80.6089C67.5109 80.8143 67.5606 81.0355 67.566 81.26Z" fill="white"/>
<path opacity="0.41" d="M68.254 81.243C68.2655 81.7165 68.1363 82.1829 67.8828 82.5831C67.6293 82.9832 67.2628 83.2992 66.8297 83.4911C66.3966 83.6829 65.9163 83.742 65.4495 83.6609C64.9828 83.5798 64.5507 83.3621 64.2077 83.0353C63.8647 82.7086 63.6263 82.2874 63.5227 81.8252C63.4191 81.363 63.4549 80.8804 63.6255 80.4385C63.7962 79.9966 64.094 79.6152 64.4814 79.3426C64.8689 79.07 65.3284 78.9184 65.802 78.907C66.4369 78.8917 67.0519 79.1292 67.5117 79.5672C67.9715 80.0053 68.2385 80.6081 68.254 81.243Z" fill="white"/>
<path d="M5.96399 51.506C5.96399 51.506 2.08999 55.226 1.22299 69.306L16.223 67.646C16.223 67.646 18.718 43.668 5.96399 51.506Z" fill="#EDC483"/>
<path d="M116.044 9.17199C116.044 9.17199 121.36 21.109 122.844 20.484C124.328 19.859 138.056 11.341 138.056 11.341C138.056 11.341 132.429 0.652981 131.256 0.0289805C130.083 -0.59502 116.044 9.17199 116.044 9.17199Z" fill="#D6B0EA"/>
<path d="M131.254 0.0289917C131.001 1.12341 130.663 2.19636 130.243 3.23799C129.556 5.19599 128.574 7.89 127.459 10.853L127.379 11.066L127.304 11.266L127.093 11.231C124.018 10.731 121.249 10.251 119.252 9.879C118.165 9.72889 117.092 9.49247 116.042 9.172C117.139 9.20097 118.232 9.317 119.311 9.519C121.323 9.798 124.101 10.219 127.177 10.719L126.891 10.884L126.972 10.67C128.087 7.707 129.124 5.03499 129.898 3.10899C130.269 2.04836 130.722 1.01851 131.254 0.0289917Z" fill="#1A3066"/>
<path d="M121.095 19.078C121.232 17.5879 121.542 16.1187 122.018 14.7C122.327 13.2355 122.806 11.812 123.444 10.458C123.306 11.9483 122.996 13.4177 122.521 14.837C122.21 16.3006 121.731 17.7236 121.095 19.078Z" fill="#1A3066"/>
<path d="M137.148 8.96597C134.278 8.86322 131.432 8.41226 128.671 7.62298C130.109 7.58911 131.545 7.72844 132.95 8.03798C134.382 8.17744 135.791 8.48901 137.148 8.96597Z" fill="#1A3066"/>
<path d="M13.475 21.997L13.814 26.467C13.814 26.467 10.014 26.979 11.097 30.445C12.18 33.911 14.78 32.395 14.78 32.395C14.78 32.395 15.429 41.277 24.528 38.46C31.769 36.219 31.328 26.842 30.407 18.848C30.3213 18.1154 30.0851 17.4085 29.7132 16.7716C29.3413 16.1347 28.8418 15.5815 28.2461 15.1467C27.6503 14.712 26.9711 14.4051 26.2511 14.2452C25.531 14.0854 24.7858 14.0761 24.062 14.218L18.592 15.284C17.0645 15.5813 15.6995 16.4292 14.7561 17.6668C13.8128 18.9044 13.3569 20.4454 13.475 21.997Z" fill="#F6AEA6"/>
<path d="M13.814 30.178L16.265 43.251C16.3959 43.9491 16.6673 44.6133 17.0627 45.2034C17.458 45.7934 17.9691 46.297 18.565 46.6836C19.1609 47.0702 19.829 47.3317 20.529 47.4523C21.229 47.5728 21.9461 47.5499 22.637 47.385C23.9381 47.0747 25.0714 46.2788 25.8048 45.1602C26.5382 44.0416 26.8162 42.6849 26.582 41.368L25.254 33.878L13.814 30.178Z" fill="#F6AEA6"/>
<path d="M23.878 30.323C23.913 30.298 23.987 30.44 24.153 30.459C24.319 30.478 24.562 30.307 24.622 29.952C24.684 29.5034 24.6796 29.0482 24.609 28.601C24.566 28.025 24.524 27.456 24.48 26.859C24.2995 25.3665 24.2924 23.8581 24.459 22.364C24.8095 23.826 24.9907 25.3235 24.999 26.827C25.03 27.427 25.059 27.994 25.088 28.571C25.1414 29.0691 25.1031 29.5727 24.975 30.057C24.855 30.508 24.39 30.788 24.1 30.657C23.81 30.526 23.854 30.32 23.878 30.323Z" fill="#251A51"/>
<path d="M26.83 37.548C26.87 37.596 26.508 37.995 25.761 38.425C24.7736 38.9783 23.6652 39.2802 22.5336 39.3041C21.402 39.328 20.2819 39.0731 19.272 38.562C18.506 38.162 18.129 37.781 18.172 37.731C19.5406 38.365 21.0209 38.7225 22.528 38.783C24.0291 38.6573 25.4908 38.2376 26.83 37.548Z" fill="#251A51"/>
<path d="M25.054 32.157C25.105 32.194 24.988 32.487 24.585 32.771C24.3167 32.9549 24.0099 33.0749 23.688 33.1219C23.3662 33.1688 23.0379 33.1415 22.7282 33.042C22.4186 32.9425 22.1358 32.7734 21.9016 32.5477C21.6674 32.322 21.4879 32.0457 21.377 31.74C21.215 31.274 21.29 30.968 21.353 30.968C21.432 30.961 21.494 31.232 21.71 31.583C21.9669 32.0422 22.3884 32.387 22.8894 32.5477C23.3905 32.7084 23.9339 32.6731 24.41 32.449C24.784 32.29 24.992 32.106 25.054 32.157Z" fill="#251A51"/>
<path d="M13.528 30.878C13.528 30.939 13.306 31.047 12.91 30.93C12.7859 30.8894 12.6724 30.8216 12.5779 30.7314C12.4834 30.6413 12.4103 30.5311 12.364 30.409C12.3023 30.2492 12.2942 30.0737 12.341 29.909C12.3695 29.8106 12.4205 29.7202 12.4899 29.6448C12.5593 29.5695 12.6453 29.5114 12.741 29.475C12.8794 29.4164 13.034 29.4085 13.1776 29.4528C13.3212 29.4971 13.4446 29.5906 13.526 29.717L13.084 29.946C12.795 29.215 12.655 28.654 12.763 28.606C12.871 28.558 13.193 29.039 13.541 29.744L13.099 29.974C13.0736 29.9573 13.0444 29.9474 13.0141 29.9453C12.9838 29.9432 12.9534 29.9489 12.926 29.962C12.826 29.992 12.785 30.107 12.817 30.262C12.8535 30.4019 12.9423 30.5225 13.065 30.599C13.307 30.756 13.534 30.802 13.528 30.878Z" fill="#251A51"/>
<path d="M27.522 24.608C27.382 24.639 27.195 24.345 27.106 23.95C27.017 23.555 27.058 23.209 27.199 23.177C27.34 23.145 27.525 23.44 27.614 23.835C27.703 24.23 27.662 24.578 27.522 24.608Z" fill="#251A51"/>
<path d="M19.818 25.324C19.68 25.362 19.478 25.073 19.369 24.678C19.26 24.283 19.282 23.931 19.421 23.892C19.56 23.853 19.761 24.143 19.87 24.539C19.979 24.935 19.954 25.285 19.818 25.324Z" fill="#251A51"/>
<path d="M20.533 22.07C20.489 22.211 20.08 22.206 19.625 22.332C19.17 22.458 18.813 22.651 18.705 22.55C18.597 22.449 18.879 21.989 19.493 21.829C20.107 21.669 20.587 21.94 20.533 22.07Z" fill="#251A51"/>
<path d="M28.4 20.823C28.342 20.959 27.891 20.892 27.363 20.944C26.835 20.996 26.401 21.129 26.321 21.005C26.241 20.881 26.644 20.483 27.321 20.425C27.998 20.367 28.465 20.699 28.4 20.823Z" fill="#251A51"/>
<path d="M13.814 26.467C16.353 23.991 17.1 19.867 17.789 16.387C18.9776 17.2344 20.3564 17.7761 21.804 17.9645C23.2515 18.1528 24.7231 17.982 26.089 17.467C26.9419 18.4687 27.9379 19.3391 29.045 20.05C29.1889 20.1693 29.3563 20.2568 29.5364 20.3068C29.7165 20.3568 29.9052 20.3681 30.09 20.34C30.516 20.211 30.705 19.722 30.807 19.289C31.1635 17.8996 31.1121 16.4369 30.659 15.076C30.4278 14.4 30.0565 13.7805 29.5693 13.258C29.0821 12.7355 28.4901 12.3218 27.832 12.044C26.363 11.6017 24.793 11.6268 23.339 12.116C21.1141 12.693 18.9795 13.5747 16.996 14.736C14.9686 15.7591 13.3386 17.4268 12.362 19.477C11.537 21.577 11.541 25.646 13.529 26.705" fill="#251A51"/>
<g opacity="0.28">
<g opacity="0.28">
<g opacity="0.28">
<path opacity="0.28" d="M24.18 32.642C24.2054 32.8154 24.1884 32.9924 24.1306 33.1578C24.0728 33.3233 23.9759 33.4724 23.848 33.5922C23.7202 33.7121 23.5652 33.7993 23.3964 33.8464C23.2275 33.8935 23.0498 33.899 22.8784 33.8626C22.7069 33.8261 22.5468 33.7487 22.4118 33.637C22.2767 33.5254 22.1706 33.3827 22.1026 33.2211C22.0346 33.0596 22.0067 32.884 22.0212 32.7093C22.0357 32.5346 22.0923 32.366 22.186 32.2179C22.586 31.6179 23.113 31.259 23.42 31.318C23.723 31.388 24.063 31.93 24.18 32.642Z" fill="#251A51"/>
</g>
</g>
</g>
<g opacity="0.12">
<g opacity="0.12">
<g opacity="0.12">
<path opacity="0.12" d="M21.015 28.493C21.142 29.198 20.27 29.944 19.055 29.998C17.84 30.052 16.904 29.39 16.966 28.677C17.028 27.964 17.909 27.446 18.937 27.397C19.965 27.348 20.889 27.778 21.015 28.493Z" fill="#251A51"/>
</g>
</g>
</g>
<g opacity="0.12">
<g opacity="0.12">
<g opacity="0.12">
<path opacity="0.12" d="M30.636 27.708C30.778 28.408 30.015 29.157 28.915 29.213C27.815 29.269 26.98 28.604 27.05 27.892C27.1812 27.5322 27.4154 27.219 27.7234 26.9915C28.0314 26.764 28.3996 26.6322 28.7821 26.6126C29.1645 26.593 29.5443 26.6864 29.8739 26.8812C30.2036 27.076 30.4687 27.3635 30.636 27.708Z" fill="#251A51"/>
</g>
</g>
</g>
<path d="M13.709 38.297C13.3935 36.1748 13.2834 34.0272 13.38 31.884C13.9755 33.9689 14.0881 36.1621 13.709 38.297Z" fill="#5944D8"/>
<path d="M28.807 43.887C26.347 42.91 45.261 49.932 45.261 49.932L43.342 62.87L36.148 60.51L28.807 43.887Z" fill="#EDC483"/>
<path d="M17.554 14.619C17.85 14.1673 18.0496 13.6593 18.1403 13.127C18.231 12.5946 18.2108 12.0492 18.081 11.525C18.0052 11.0872 17.7962 10.6834 17.4825 10.3688C17.1687 10.0542 16.7656 9.84401 16.328 9.76697C15.8175 9.76649 15.3276 9.96861 14.966 10.329C14.5058 10.7561 14.2026 11.3254 14.1049 11.9456C14.0073 12.5658 14.1209 13.2008 14.4275 13.7487C14.7342 14.2965 15.216 14.7254 15.7957 14.9665C16.3754 15.2076 17.0193 15.2468 17.624 15.078" fill="#251A51"/>
<path d="M130.554 97.478C130.554 97.478 136.706 88.658 135.954 91.997C135.202 95.336 128.954 110.177 128.954 110.177L130.554 97.478Z" fill="#251A51"/>
<path d="M41.325 84.149C41.325 84.149 49.453 81.599 49.174 82.438C48.895 83.277 47.512 83.308 46.129 84.66C46.129 84.66 55.216 84.76 54.779 85.507C54.342 86.254 48.427 86.444 48.392 86.571C48.357 86.698 54.861 86.858 54.715 87.55C54.569 88.242 48.524 88.074 48.524 88.074C48.524 88.074 54.124 88.674 54.012 89.416C53.9 90.158 48.731 89.624 48.731 89.624C48.731 89.624 53.055 90.119 52.943 90.795C52.874 91.207 40.282 91.301 40.256 91.604C40.243 91.762 41.325 84.149 41.325 84.149Z" fill="#F6AEA6"/>
<path d="M53.909 43.887C53.909 43.887 48.973 36.987 49.853 36.987C50.733 36.987 51.192 38.287 52.901 39.179C52.901 39.179 50.173 30.55 51.018 30.731C51.863 30.912 53.876 36.451 54.007 36.445C54.138 36.439 52.27 30.234 52.971 30.158C53.672 30.082 55.388 35.853 55.388 35.853C55.388 35.853 54.212 30.366 54.954 30.244C55.696 30.122 56.791 35.178 56.791 35.178C56.791 35.178 55.917 30.933 56.591 30.829C57.002 30.766 60.728 41.296 60.728 41.296C60.628 41.296 53.909 43.886 53.909 43.886" fill="#F6AEA6"/>
<path d="M8.38599 62.87C8.44099 62.865 8.62399 63.192 8.634 63.843C8.63384 64.0491 8.58569 64.2524 8.49335 64.4368C8.40101 64.6211 8.26702 64.7814 8.102 64.905C7.99282 64.988 7.86733 65.0469 7.73376 65.0779C7.60019 65.1089 7.46156 65.1113 7.327 65.085C7.06258 65.0147 6.82708 64.8629 6.654 64.651C6.333 64.276 6.123 64.051 5.793 64.015C5.65396 63.9914 5.51142 63.9992 5.37578 64.0378C5.24014 64.0764 5.11483 64.1448 5.00899 64.238C4.62599 64.589 4.638 64.994 4.56 64.989C4.507 65.022 4.309 64.556 4.741 63.989C4.87509 63.8298 5.04603 63.7058 5.23895 63.6277C5.43188 63.5497 5.64095 63.5199 5.848 63.541C6.09876 63.562 6.33855 63.6532 6.53999 63.804C6.72118 63.9536 6.88852 64.1193 7.03999 64.299C7.55699 65.006 8.23999 64.317 8.27299 63.808C8.35399 63.27 8.30099 62.878 8.38599 62.87Z" fill="#F9F2FC"/>
<path d="M12.827 59.037C12.794 58.994 12.978 58.667 13.527 58.319C13.7031 58.2117 13.9018 58.1469 14.1072 58.1295C14.3127 58.1122 14.5194 58.1428 14.711 58.219C14.8386 58.2692 14.9541 58.3457 15.0501 58.4436C15.146 58.5415 15.2203 58.6585 15.268 58.787C15.3446 59.0492 15.3376 59.3289 15.248 59.587C15.0761 59.9158 15.0402 60.299 15.148 60.654C15.2004 60.7851 15.2815 60.9028 15.3853 60.9985C15.4891 61.0942 15.6131 61.1654 15.748 61.207C16.248 61.352 16.586 61.131 16.623 61.2C16.678 61.228 16.383 61.64 15.671 61.567C15.4654 61.5354 15.2706 61.454 15.1036 61.3299C14.9366 61.2058 14.8025 61.0428 14.713 60.855C14.6007 60.6298 14.5539 60.3775 14.578 60.127C14.6126 59.8955 14.6678 59.6676 14.743 59.446C15.078 58.638 14.136 58.416 13.682 58.646C13.188 58.861 12.876 59.107 12.827 59.037Z" fill="#F9F2FC"/>
<path d="M12.527 49.489C12.494 49.445 12.678 49.119 13.227 48.771C13.4031 48.6637 13.6017 48.5989 13.8072 48.5815C14.0127 48.5642 14.2194 48.5948 14.411 48.671C14.5385 48.7212 14.6541 48.7977 14.7501 48.8956C14.846 48.9934 14.9203 49.1105 14.968 49.239C15.0446 49.5012 15.0376 49.7809 14.948 50.039C14.7761 50.3678 14.7401 50.7509 14.848 51.106C14.9004 51.2371 14.9815 51.3548 15.0853 51.4505C15.1891 51.5462 15.3131 51.6174 15.448 51.659C15.948 51.804 16.286 51.582 16.323 51.652C16.378 51.679 16.083 52.092 15.372 52.019C15.1662 51.9875 14.9712 51.9062 14.804 51.7821C14.6369 51.658 14.5026 51.4949 14.413 51.307C14.3007 51.0817 14.2539 50.8295 14.278 50.579C14.3126 50.3475 14.3678 50.1196 14.443 49.898C14.778 49.09 13.836 48.868 13.382 49.098C12.888 49.313 12.576 49.559 12.527 49.489Z" fill="#F9F2FC"/>
<path d="M21.996 61.924C21.955 61.961 21.613 61.806 21.219 61.287C21.0972 61.1206 21.0157 60.9283 20.981 60.7251C20.9463 60.5218 20.9593 60.3133 21.019 60.116C21.0583 59.9853 21.1247 59.8644 21.2138 59.7611C21.3028 59.6577 21.4126 59.5742 21.536 59.516C21.791 59.4167 22.0706 59.3992 22.336 59.466C22.6792 59.6062 23.0638 59.6062 23.407 59.466C23.5332 59.4027 23.6437 59.3119 23.7302 59.2002C23.8167 59.0886 23.8772 58.959 23.907 58.821C24.007 58.312 23.758 57.993 23.824 57.95C23.847 57.892 24.283 58.15 24.273 58.865C24.2595 59.0727 24.1954 59.274 24.0863 59.4512C23.9772 59.6285 23.8264 59.7764 23.647 59.882C23.4328 60.0142 23.1857 60.0836 22.934 60.082C22.7003 60.0671 22.4684 60.0316 22.241 59.976C21.407 59.714 21.268 60.671 21.541 61.103C21.789 61.578 22.061 61.869 21.996 61.924Z" fill="#F9F2FC"/>
<path d="M28.454 71.91C28.484 71.956 28.276 72.269 27.701 72.574C27.5174 72.6678 27.3145 72.7177 27.1083 72.7196C26.9021 72.7215 26.6983 72.6754 26.513 72.585C26.3896 72.5256 26.2802 72.4408 26.1918 72.3362C26.1034 72.2316 26.038 72.1095 26 71.978C25.942 71.7096 25.9697 71.4298 26.079 71.178C26.2735 70.8625 26.336 70.4832 26.253 70.122C26.2111 69.9867 26.1394 69.8626 26.0432 69.7588C25.947 69.6549 25.8287 69.574 25.697 69.522C25.21 69.341 24.855 69.536 24.823 69.464C24.77 69.433 25.095 69.044 25.799 69.164C26.0012 69.2113 26.1888 69.3071 26.3456 69.4432C26.5024 69.5792 26.6237 69.7515 26.699 69.945C26.7949 70.1778 26.8233 70.4328 26.781 70.681C26.729 70.9093 26.6567 71.1325 26.565 71.348C26.173 72.13 27.095 72.42 27.565 72.221C28.079 72.059 28.407 71.836 28.454 71.91Z" fill="#F9F2FC"/>
<path d="M36.054 56.161C36.084 56.207 35.876 56.52 35.301 56.825C35.1174 56.9189 34.9145 56.9687 34.7083 56.9706C34.5021 56.9725 34.2983 56.9264 34.113 56.836C33.9894 56.7766 33.8798 56.6917 33.7914 56.5869C33.703 56.4821 33.6377 56.3598 33.6 56.228C33.5415 55.9597 33.5688 55.6799 33.678 55.428C33.8723 55.1124 33.9351 54.7333 33.853 54.372C33.811 54.2367 33.7391 54.1125 33.6427 54.0087C33.5463 53.9048 33.4278 53.8239 33.296 53.772C32.81 53.591 32.455 53.786 32.423 53.714C32.37 53.683 32.694 53.293 33.399 53.414C33.6012 53.4613 33.7888 53.5571 33.9456 53.6932C34.1024 53.8292 34.2237 54.0015 34.299 54.195C34.3949 54.4277 34.4233 54.6828 34.381 54.931C34.329 55.1593 34.2567 55.3825 34.165 55.598C33.772 56.38 34.695 56.67 35.165 56.471C35.679 56.31 36.008 56.088 36.054 56.161Z" fill="#F9F2FC"/>
<path d="M41.237 53.765C41.271 53.721 41.637 53.811 42.118 54.249C42.2681 54.3902 42.3833 54.5643 42.4546 54.7576C42.5259 54.9509 42.5514 55.1581 42.529 55.363C42.5147 55.4995 42.4717 55.6315 42.4027 55.7503C42.3338 55.869 42.2405 55.9719 42.129 56.052C41.8972 56.198 41.6255 56.268 41.352 56.252C40.9893 56.176 40.6112 56.2453 40.299 56.445C40.1867 56.5306 40.0949 56.6402 40.0304 56.7658C39.9658 56.8914 39.9302 57.0298 39.926 57.171C39.92 57.69 40.226 57.958 40.167 58.012C40.155 58.072 39.679 57.899 39.559 57.194C39.5341 56.9874 39.5602 56.7778 39.6349 56.5836C39.7097 56.3894 39.8309 56.2165 39.988 56.08C40.1746 55.9109 40.4051 55.7979 40.653 55.754C40.8852 55.726 41.1194 55.7183 41.353 55.731C42.222 55.837 42.183 54.87 41.837 54.495C41.504 54.065 41.183 53.831 41.237 53.765Z" fill="#F9F2FC"/>
<path d="M20.254 80.054C20.283 80.1 20.076 80.412 19.5 80.718C19.3166 80.8119 19.1137 80.8617 18.9077 80.8635C18.7016 80.8652 18.498 80.8188 18.313 80.728C18.1895 80.6685 18.0799 80.5838 17.9914 80.4792C17.9028 80.3746 17.8372 80.2526 17.799 80.121C17.7413 79.8526 17.7689 79.5729 17.878 79.321C18.0723 79.0051 18.1351 78.6256 18.053 78.264C18.0106 78.1288 17.9386 78.0048 17.8423 77.901C17.7459 77.7972 17.6276 77.7163 17.496 77.664C17.01 77.483 16.655 77.679 16.623 77.607C16.57 77.575 16.894 77.186 17.599 77.307C17.8011 77.354 17.9887 77.4496 18.1456 77.5855C18.3024 77.7215 18.4237 77.8936 18.499 78.087C18.595 78.3197 18.6231 78.5749 18.58 78.823C18.5289 79.0514 18.457 79.2747 18.365 79.49C17.972 80.272 18.895 80.562 19.365 80.364C19.886 80.203 20.215 79.978 20.254 80.054Z" fill="#F9F2FC"/>
<path d="M31.508 64.898C31.464 64.929 31.143 64.735 30.813 64.173C30.7113 63.9937 30.6528 63.7931 30.6422 63.5872C30.6316 63.3813 30.6692 63.1758 30.752 62.987C30.8061 62.8611 30.8861 62.7481 30.9869 62.6554C31.0878 62.5627 31.2071 62.4923 31.337 62.449C31.6017 62.3797 31.8815 62.3951 32.137 62.493C32.4606 62.6739 32.8423 62.7206 33.2 62.623C33.3326 62.5747 33.4526 62.4974 33.5514 62.3967C33.6502 62.2959 33.7252 62.1744 33.771 62.041C33.932 61.548 33.721 61.201 33.792 61.166C33.821 61.112 34.224 61.42 34.129 62.129C34.0909 62.3335 34.0034 62.5256 33.8741 62.6886C33.7448 62.8515 33.5775 62.9804 33.387 63.064C33.1588 63.1696 32.9055 63.2087 32.656 63.177C32.4255 63.1352 32.1992 63.0726 31.98 62.99C31.18 62.631 30.932 63.565 31.15 64.026C31.344 64.532 31.58 64.851 31.508 64.898Z" fill="#F9F2FC"/>
<path d="M33.528 73.041C33.483 73.072 33.162 72.878 32.828 72.316C32.7263 72.1367 32.6678 71.9361 32.6572 71.7302C32.6466 71.5243 32.6842 71.3188 32.767 71.13C32.8211 71.0041 32.9012 70.891 33.002 70.7981C33.1028 70.7052 33.2221 70.6346 33.352 70.591C33.6169 70.5225 33.8965 70.5382 34.152 70.636C34.4757 70.8167 34.8574 70.863 35.215 70.765C35.3475 70.7169 35.4675 70.6397 35.5663 70.5392C35.6651 70.4386 35.7402 70.3173 35.786 70.184C35.947 69.69 35.736 69.344 35.807 69.309C35.836 69.255 36.239 69.563 36.144 70.272C36.1058 70.4763 36.0183 70.6682 35.8892 70.8312C35.7601 70.9941 35.5932 71.1231 35.403 71.207C35.1744 71.3126 34.9208 71.3518 34.671 71.32C34.4409 71.2779 34.215 71.2153 33.996 71.133C33.196 70.774 32.947 71.708 33.165 72.169C33.363 72.678 33.599 72.994 33.528 73.041Z" fill="#F9F2FC"/>
<path d="M17.246 69.567C17.192 69.56 17.085 69.201 17.218 68.567C17.2633 68.3659 17.3549 68.1782 17.4854 68.0187C17.616 67.8592 17.7819 67.7322 17.97 67.648C18.0953 67.5905 18.2314 67.5602 18.3693 67.5591C18.5072 67.5581 18.6438 67.5863 18.77 67.642C19.0122 67.7691 19.2087 67.9687 19.332 68.213C19.563 68.65 19.719 68.913 20.032 69.023C20.1625 69.0764 20.3034 69.1 20.4442 69.0921C20.585 69.0841 20.7223 69.0448 20.846 68.977C21.297 68.719 21.374 68.321 21.446 68.342C21.504 68.322 21.596 68.821 21.046 69.282C20.8803 69.4079 20.6864 69.4914 20.4811 69.5253C20.2757 69.5591 20.0653 69.5421 19.868 69.476C19.628 69.4009 19.4141 69.2594 19.251 69.068C19.1085 68.8823 18.983 68.6841 18.876 68.476C18.527 67.676 17.714 68.197 17.566 68.685C17.37 69.185 17.331 69.578 17.246 69.567Z" fill="#F9F2FC"/>
<path d="M31.954 79.62C31.9 79.613 31.793 79.254 31.926 78.62C31.9712 78.4188 32.0627 78.2311 32.1933 78.0715C32.3238 77.912 32.4898 77.7851 32.678 77.701C32.8026 77.6442 32.9379 77.6143 33.0749 77.6133C33.2118 77.6122 33.3475 77.6401 33.473 77.695C33.715 77.8224 33.9114 78.0219 34.035 78.266C34.266 78.702 34.422 78.966 34.735 79.076C34.8656 79.1293 35.0065 79.1528 35.1473 79.1447C35.2882 79.1365 35.4254 79.097 35.549 79.029C36 78.772 36.077 78.374 36.149 78.395C36.207 78.375 36.299 78.873 35.749 79.335C35.583 79.4607 35.3889 79.544 35.1835 79.5778C34.9781 79.6117 34.7675 79.5949 34.57 79.529C34.3302 79.4535 34.1164 79.3121 33.953 79.121C33.8105 78.9349 33.685 78.7365 33.578 78.528C33.229 77.728 32.415 78.249 32.268 78.738C32.074 79.238 32.034 79.633 31.954 79.62Z" fill="#F9F2FC"/>
<path d="M31.524 49.165C31.469 49.159 31.362 48.799 31.495 48.165C31.5406 47.964 31.6322 47.7764 31.7627 47.6169C31.8933 47.4574 32.059 47.3304 32.247 47.246C32.3724 47.1886 32.5085 47.1584 32.6464 47.1573C32.7842 47.1563 32.9208 47.1845 33.047 47.24C33.2891 47.3674 33.4855 47.5669 33.609 47.811C33.839 48.248 33.996 48.511 34.309 48.621C34.4395 48.6745 34.5804 48.6981 34.7212 48.6902C34.8621 48.6822 34.9993 48.6429 35.123 48.575C35.573 48.317 35.65 47.919 35.723 47.941C35.781 47.92 35.873 48.419 35.323 48.88C35.1574 49.0059 34.9634 49.0894 34.7581 49.1232C34.5528 49.1571 34.3423 49.1401 34.145 49.074C33.905 48.9989 33.6911 48.8574 33.528 48.666C33.3856 48.4803 33.2601 48.2821 33.153 48.074C32.804 47.274 31.99 47.795 31.842 48.283C31.648 48.784 31.608 49.178 31.524 49.165Z" fill="#F9F2FC"/>
<path d="M26.72 83.662C26.692 83.709 26.32 83.662 25.786 83.292C25.6192 83.1709 25.483 83.0126 25.388 82.8296C25.2931 82.6467 25.2421 82.4441 25.239 82.238C25.2358 82.101 25.2616 81.9649 25.3147 81.8386C25.3678 81.7123 25.4469 81.5986 25.547 81.505C25.7596 81.3326 26.0208 81.2309 26.294 81.214C26.786 81.174 27.089 81.135 27.315 80.891C27.4154 80.7918 27.4924 80.6715 27.5405 80.5389C27.5886 80.4062 27.6065 80.2645 27.593 80.124C27.534 79.609 27.199 79.381 27.249 79.324C27.249 79.262 27.749 79.375 27.955 80.059C28.0053 80.261 28.0055 80.4723 27.9556 80.6744C27.9058 80.8766 27.8074 81.0635 27.669 81.219C27.5046 81.4094 27.2902 81.55 27.05 81.625C26.823 81.6821 26.5915 81.7189 26.358 81.735C25.482 81.735 25.642 82.693 26.032 83.022C26.418 83.398 26.766 83.59 26.72 83.662Z" fill="#F9F2FC"/>
<path d="M9.28 53.765C9.327 53.738 9.62799 53.965 9.90199 54.554C9.98532 54.7425 10.0236 54.9477 10.0139 55.1536C10.0042 55.3594 9.9467 55.5602 9.84599 55.74C9.78017 55.8601 9.68963 55.9649 9.58035 56.0475C9.47107 56.13 9.34552 56.1885 9.21199 56.219C8.94163 56.2617 8.66468 56.2187 8.42 56.096C7.974 55.884 7.692 55.766 7.375 55.864C7.23827 55.899 7.11111 55.9641 7.0028 56.0546C6.89449 56.1451 6.80777 56.2587 6.74899 56.387C6.54099 56.863 6.71699 57.228 6.64299 57.256C6.60899 57.307 6.24299 56.961 6.40199 56.265C6.45974 56.0651 6.56545 55.8824 6.70994 55.7327C6.85442 55.5829 7.03329 55.4708 7.23099 55.406C7.4686 55.3233 7.72469 55.309 7.96999 55.365C8.19511 55.4292 8.41399 55.5135 8.62399 55.617C9.38299 56.053 9.72399 55.148 9.55099 54.668C9.40799 54.145 9.204 53.805 9.28 53.765Z" fill="#F9F2FC"/>
<path d="M26.113 50.752C26.161 50.725 26.461 50.952 26.735 51.541C26.8185 51.7294 26.857 51.9346 26.8474 52.1405C26.8379 52.3463 26.7806 52.5471 26.68 52.727C26.6138 52.847 26.523 52.9517 26.4136 53.0343C26.3042 53.1168 26.1786 53.1753 26.045 53.206C25.7746 53.2487 25.4977 53.2057 25.253 53.083C24.808 52.871 24.526 52.753 24.208 52.851C24.0713 52.886 23.9441 52.9511 23.8358 53.0416C23.7275 53.1321 23.6408 53.2457 23.582 53.374C23.375 53.85 23.55 54.215 23.482 54.243C23.447 54.294 23.076 53.948 23.24 53.252C23.2979 53.0522 23.4037 52.8695 23.5481 52.7198C23.6926 52.5701 23.8714 52.4579 24.069 52.393C24.3067 52.3108 24.5627 52.2966 24.808 52.352C25.0332 52.416 25.2521 52.5004 25.462 52.604C26.222 53.04 26.562 52.135 26.39 51.655C26.242 51.132 26.038 50.792 26.113 50.752Z" fill="#F9F2FC"/>
<path d="M15.736 68.466C15.695 68.1236 15.6987 67.7774 15.747 67.436C15.788 66.776 15.864 65.823 15.969 64.647C16.178 62.297 16.508 59.047 16.895 55.472C17.0038 54.623 17.0079 53.7639 16.907 52.914C16.8023 52.1427 16.4983 51.412 16.025 50.794C15.1823 49.7459 14.0085 49.0152 12.696 48.722C11.8005 48.518 10.8813 48.4375 9.964 48.483C9.62375 48.5218 9.28069 48.5299 8.939 48.507C9.25992 48.3745 9.60121 48.298 9.948 48.281C10.8888 48.1549 11.8439 48.1823 12.776 48.362C14.1986 48.6266 15.4828 49.3831 16.404 50.499C16.939 51.176 17.2864 51.9821 17.411 52.836C17.525 53.728 17.525 54.6309 17.411 55.523C17.023 59.11 16.636 62.345 16.333 64.688C16.181 65.858 16.049 66.805 15.947 67.458C15.9215 67.8018 15.8505 68.1408 15.736 68.466Z" fill="#251A51"/>
<path d="M16.404 67.649C13.8866 68.1767 11.3365 68.5338 8.77097 68.718C6.22331 69.0747 3.65447 69.2591 1.08197 69.27C3.59966 68.7422 6.15014 68.385 8.71597 68.201C11.2633 67.8442 13.8318 67.6598 16.404 67.649Z" fill="#251A51"/>
<path d="M37.232 65.957C37.5912 63.7521 37.4925 61.4969 36.9419 59.3319C36.3914 57.1669 35.4008 55.1384 34.032 53.373C34.5818 53.7607 35.0486 54.2544 35.405 54.825C37.3179 57.4865 38.1528 60.7732 37.742 64.025C37.7015 64.6964 37.5281 65.3531 37.232 65.957Z" fill="#251A51"/>
<path d="M77.254 66.201C77.2687 65.3579 77.4684 64.5284 77.839 63.771C78.795 62.266 80.153 62.644 81.468 63.307C82.0608 63.6973 82.7376 63.9414 83.4431 64.0192C84.1485 64.0971 84.8624 64.0066 85.526 63.755C87.801 62.771 88.869 59.339 86.698 57.726C85.998 57.203 85.298 58.065 85.398 58.726C85.529 59.649 85.987 60.665 85.198 61.458C84.14 62.519 82.898 61.628 81.845 61.152C81.2999 60.8835 80.705 60.7314 80.098 60.7052C79.491 60.6791 78.8851 60.7794 78.319 61C76.294 61.819 74.826 64.564 76.433 66.418C76.4948 66.4768 76.5706 66.5188 76.6533 66.54C76.7359 66.5612 76.8226 66.5609 76.905 66.5392C76.9875 66.5174 77.0631 66.4749 77.1245 66.4157C77.1859 66.3565 77.2312 66.2826 77.256 66.201H77.254Z" fill="#6E3281"/>
<path d="M82.618 26.798C82.832 28.188 84.276 31.13 85.796 31.536C86.605 31.752 87.207 31.22 87.835 30.787C88.978 30 90.106 29.194 91.235 28.387C91.4536 28.2537 91.6121 28.0409 91.677 27.7932C91.7419 27.5455 91.7082 27.2823 91.583 27.059L88.583 22.444C88.4514 22.2239 88.2387 22.0641 87.9906 21.9991C87.7425 21.934 87.4787 21.9688 87.256 22.096C85.9585 22.9262 84.7153 23.8384 83.534 24.827C82.76 25.54 83.746 26.706 84.625 26.24C85.8794 25.4946 87.0851 24.6702 88.235 23.772L86.908 23.424C87.908 24.962 88.908 26.5003 89.908 28.039L90.256 26.711C89.578 27.194 88.898 27.674 88.222 28.16C87.839 28.434 86.558 29.635 86.131 29.587C85.749 29.544 84.948 28.187 84.714 27.906C84.2721 27.3255 83.7506 26.8101 83.165 26.375C82.865 26.175 82.573 26.506 82.618 26.795V26.798Z" fill="#EDC483"/>
<path d="M68.46 41.144C66.888 42.653 66.291 45.002 67.789 46.815C68.506 47.649 69.5093 48.1844 70.6014 48.3154C71.6935 48.4464 72.795 48.1637 73.689 47.523C77.943 44.239 73.509 38.18 68.918 39.434C68.7453 39.487 68.597 39.5996 68.4995 39.7517C68.402 39.9039 68.3617 40.0856 68.3857 40.2647C68.4097 40.4438 68.4965 40.6085 68.6306 40.7296C68.7647 40.8507 68.9374 40.9203 69.118 40.926C70.4859 40.8357 71.8439 41.2122 72.97 41.994C73.5058 42.4839 73.8297 43.1632 73.873 43.8879C73.9163 44.6126 73.6756 45.3257 73.202 45.876C70.702 48.953 66.353 44.422 68.982 41.671C69.0469 41.6001 69.082 41.5069 69.0799 41.4108C69.0778 41.3147 69.0387 41.2232 68.9707 41.1552C68.9028 41.0873 68.8112 41.0481 68.7151 41.046C68.619 41.044 68.5258 41.079 68.455 41.144H68.46Z" fill="#8AA9FC"/>
<path d="M104.62 55.103C104.078 57.917 103.62 60.737 103.185 63.57C103.15 63.7138 103.153 63.8642 103.193 64.0067C103.233 64.1491 103.309 64.2789 103.414 64.3836C103.518 64.4883 103.648 64.5644 103.79 64.6045C103.933 64.6447 104.083 64.6476 104.227 64.613C106.888 64.229 109.54 63.868 112.166 63.287C112.281 63.2528 112.387 63.1933 112.475 63.1128C112.564 63.0324 112.634 62.933 112.679 62.822C112.724 62.711 112.744 62.5913 112.737 62.4717C112.729 62.3521 112.695 62.2357 112.637 62.131C111.16 59.531 109.26 55.821 106.453 54.431C105.739 54.078 104.748 54.842 105.27 55.614C106.212 56.7435 107.224 57.8123 108.301 58.814C109.445 60.0669 110.443 61.4449 111.277 62.922L111.957 61.737C109.205 62.009 106.499 62.499 103.777 62.974L104.849 63.791C105.175 60.943 105.469 58.101 105.683 55.243C105.68 55.1137 105.631 54.9896 105.545 54.8932C105.459 54.7967 105.341 54.7342 105.213 54.7168C105.085 54.6995 104.955 54.7284 104.846 54.7985C104.737 54.8685 104.657 54.9751 104.62 55.099V55.103Z" fill="#E3707F"/>
<path d="M92.381 49.878C93.0392 47.0703 93.4531 44.211 93.618 41.332C93.657 40.452 92.218 40.232 92.058 41.121C91.5666 43.9661 91.3233 46.8487 91.331 49.736C91.3348 49.8631 91.3836 49.9848 91.4687 50.0793C91.5538 50.1738 91.6697 50.2351 91.7958 50.2522C91.9218 50.2692 92.0498 50.2409 92.157 50.1724C92.2642 50.1039 92.3436 49.9995 92.381 49.878Z" fill="#E8947E"/>
<path d="M122.68 49.454C125.525 49.8905 128.402 50.0796 131.28 50.019C131.475 49.996 131.654 49.9025 131.784 49.756C131.914 49.6096 131.986 49.4204 131.986 49.2245C131.986 49.0285 131.914 48.8394 131.784 48.6929C131.654 48.5465 131.475 48.4529 131.28 48.43C128.468 48.1777 125.639 48.1693 122.826 48.405C122.27 48.445 122.049 49.366 122.684 49.454H122.68Z" fill="#EDC483"/>
<path d="M99.818 13.713C102.337 15.1159 104.976 16.2896 107.705 17.22C107.888 17.2618 108.081 17.2377 108.248 17.1519C108.415 17.0661 108.547 16.9241 108.62 16.7507C108.693 16.5774 108.703 16.3839 108.647 16.2042C108.592 16.0244 108.475 15.87 108.317 15.768C105.717 14.5177 103.01 13.5033 100.229 12.737C100.105 12.7063 99.9741 12.7209 99.8599 12.7781C99.7457 12.8354 99.6557 12.9315 99.6062 13.0492C99.5566 13.1669 99.5507 13.2985 99.5895 13.4202C99.6284 13.5419 99.7094 13.6457 99.818 13.713Z" fill="#E3707F"/>
<path d="M107.838 36.584L107.694 36.457C107.391 36.1537 106.979 35.9833 106.551 35.9833C106.122 35.9833 105.71 36.1537 105.407 36.457C105.104 36.7603 104.933 37.1716 104.933 37.6005C104.933 38.0294 105.104 38.4407 105.407 38.744L105.535 38.887C105.844 39.1697 106.251 39.3221 106.67 39.3127C107.089 39.3033 107.488 39.1326 107.784 38.8363C108.081 38.5399 108.251 38.1408 108.261 37.7218C108.27 37.3028 108.118 36.8964 107.835 36.587L107.838 36.584Z" fill="#251A51"/>
</svg>
