<svg width="105" height="104" viewBox="0 0 105 104" fill="none" xmlns="http://www.w3.org/2000/svg">
<path d="M83.761 101.482C83.761 101.482 56.897 107.731 46.106 96.94L49.968 71.166C51.141 63.757 50.442 49.503 56.116 44.446C56.7652 43.8632 57.4896 43.3702 58.27 42.98C62.25 41.058 69.331 40.02 76.129 39.994C84.388 39.962 92.888 46.207 95.056 54.176L86.118 75.084L83.761 101.482Z" fill="#E3707F"/>
<path d="M81.105 57.387C81.105 57.387 93.139 80.567 87.163 81.801C67.506 85.862 56.097 89.192 56.097 89.192L55.097 96.826C55.39 97.979 94.866 96.981 99.542 91.678C102.842 87.933 107.232 79.278 97.895 60.548L95.058 54.176L81.105 57.387Z" fill="#F6AEA6"/>
<path d="M58.506 45.447L28.534 57.052L27.595 41.327L21.178 38.845C21.178 38.845 11.878 64.084 23.51 68.783C35.142 73.482 48.259 64.799 48.259 64.799L58.506 45.447Z" fill="#F6AEA6"/>
<path d="M62.214 41.594C51.752 44.927 45.5139 48.833 30.7859 54.976L38.348 71.84L51.383 67.655L62.214 41.594Z" fill="#E3707F"/>
<path d="M79.302 54.176L86.902 71.84L104.048 68.709L92.4969 48.815L78.821 54.175" fill="#E3707F"/>
<path d="M70.331 66.219C73.983 66.019 77.589 66.174 81.238 66.219C81.557 66.219 81.538 65.772 81.238 65.736C77.61 65.3833 73.9555 65.4007 70.331 65.788C70.06 65.811 70.053 66.231 70.331 66.216V66.219Z" fill="#1A3066"/>
<path d="M86.686 45.731C74.348 46.845 82.786 65.031 85.948 70.544C85.9662 70.5752 85.9904 70.6025 86.0192 70.6243C86.048 70.6461 86.0809 70.6621 86.1158 70.6712C86.1508 70.6804 86.1872 70.6826 86.223 70.6776C86.2588 70.6727 86.2933 70.6608 86.3244 70.6425C86.3556 70.6243 86.3829 70.6 86.4048 70.5712C86.4266 70.5424 86.4426 70.5096 86.4517 70.4747C86.4608 70.4397 86.463 70.4033 86.458 70.3675C86.4531 70.3317 86.4412 70.2972 86.423 70.266C83.28 64.702 74.8699 47.774 86.7229 46.032C86.8929 46.007 86.854 45.715 86.683 45.732L86.686 45.731Z" fill="#1A3066"/>
<path d="M52.494 56.131C50.9526 62.2282 49.9768 68.4546 49.579 74.731C49.563 74.989 49.999 75.055 50.036 74.793C50.919 68.593 51.807 62.405 52.801 56.219C52.833 56.019 52.545 55.931 52.494 56.135V56.131Z" fill="#1A3066"/>
<path d="M81.371 22.528L81.937 14.714C82.4315 14.5324 82.8845 14.2534 83.2693 13.8936C83.6541 13.5339 83.9629 13.1006 84.1773 12.6194C84.3918 12.1382 84.5075 11.6189 84.5178 11.0922C84.528 10.5655 84.4326 10.0421 84.237 9.55299C83.7738 8.59163 83.0144 7.80419 82.0705 7.30633C81.1266 6.80847 80.048 6.62644 78.993 6.787C80.322 5.887 80.22 3.72199 79.129 2.53999C77.9297 1.44239 76.3478 0.858943 74.723 0.914988C73.1165 0.9772 71.5077 0.923398 69.909 0.753993C68.509 0.493993 67.137 -0.146014 65.723 0.0309858C64.309 0.207986 62.96 1.79899 63.723 3.00299C61.685 2.70299 59.48 2.431 57.669 3.414C55.858 4.397 54.949 7.19399 56.506 8.54399C56.0193 8.85502 55.6731 9.34364 55.5411 9.90594C55.4091 10.4682 55.5016 11.0598 55.799 11.555C56.1206 12.036 56.5529 12.4328 57.0596 12.7123C57.5663 12.9917 58.1326 13.1456 58.711 13.161C59.8673 13.1799 61.0189 13.0111 62.121 12.661" fill="#251A51"/>
<path d="M81.038 17.462L80.6269 22.877C80.6269 22.877 85.2269 23.498 83.9189 27.697C82.6109 31.896 79.457 30.059 79.457 30.059C79.457 30.059 78.67 40.82 67.647 37.408C58.873 34.693 59.41 23.332 60.524 13.647C60.6279 12.7596 60.9141 11.9032 61.3646 11.1315C61.8151 10.3599 62.4203 9.68977 63.1421 9.1631C63.8639 8.63644 64.6867 8.26463 65.5589 8.07102C66.4312 7.87741 67.3342 7.86616 68.211 8.038L74.8379 9.329C76.6885 9.68927 78.3423 10.7166 79.4853 12.2159C80.6283 13.7153 81.1808 15.5821 81.038 17.462Z" fill="#F6AEA6"/>
<path d="M80.627 27.371L77.657 43.21C77.4983 44.0557 77.1696 44.8603 76.6906 45.5751C76.2117 46.29 75.5925 46.9 74.8707 47.3684C74.1489 47.8368 73.3396 48.1537 72.4916 48.2999C71.6437 48.4461 70.7749 48.4186 69.938 48.219C68.3615 47.8427 66.9884 46.8782 66.0997 45.5229C65.2109 44.1675 64.8737 42.5238 65.157 40.928L66.769 31.85L80.627 27.371Z" fill="#F6AEA6"/>
<path d="M68.434 27.547C68.452 27.54 68.484 27.769 68.16 27.927C67.836 28.085 67.282 27.749 67.143 27.213C66.9934 26.6302 66.9514 26.0249 67.019 25.427C67.055 24.743 67.092 24.045 67.131 23.314C67.1587 21.4954 67.3596 19.6835 67.731 17.903C67.8778 19.7158 67.851 21.5384 67.651 23.346C67.598 24.077 67.551 24.774 67.499 25.457C67.4153 26.0042 67.4153 26.5609 67.499 27.108C67.578 27.549 67.899 27.765 68.109 27.731C68.319 27.697 68.398 27.522 68.434 27.547Z" fill="#251A51"/>
<path d="M64.8579 36.303C65.3653 36.5032 65.8587 36.737 66.3349 37.003C67.5106 37.5392 68.7833 37.8298 70.0752 37.8569C71.367 37.8841 72.6508 37.6473 73.8479 37.161C74.3351 36.9164 74.8378 36.7043 75.3529 36.526C75.3909 36.575 74.9259 37.026 73.9989 37.497C72.7778 38.1038 71.4279 38.4057 70.0647 38.377C68.7014 38.3483 67.3654 37.9897 66.1709 37.332C65.2639 36.821 64.8189 36.347 64.8579 36.303Z" fill="#251A51"/>
<path d="M67.012 29.772C67.073 29.719 67.312 29.954 67.778 30.159C68.3619 30.4453 69.0341 30.4941 69.6532 30.2951C70.2723 30.0961 70.7902 29.6649 71.098 29.092C71.354 28.655 71.415 28.323 71.498 28.331C71.559 28.331 71.637 28.697 71.434 29.249C71.2978 29.6113 71.0815 29.9381 70.8012 30.2051C70.521 30.4721 70.1841 30.6723 69.8156 30.7907C69.4472 30.9092 69.0567 30.9429 68.6734 30.8892C68.29 30.8356 67.9238 30.6961 67.602 30.481C67.113 30.147 66.961 29.807 67.012 29.772Z" fill="#251A51"/>
<path d="M80.974 28.223C80.967 28.144 81.241 28.104 81.548 27.917C81.7099 27.8229 81.8287 27.6694 81.879 27.489C81.928 27.289 81.872 27.109 81.719 27.06C81.6748 27.0383 81.625 27.0303 81.5762 27.037C81.5274 27.0438 81.4816 27.065 81.445 27.098L81.003 26.868C81.418 26.011 81.789 25.42 81.897 25.468C82.005 25.516 81.816 26.187 81.459 27.068L81.017 26.838C81.1099 26.6964 81.2497 26.5919 81.4118 26.5429C81.574 26.4939 81.7482 26.5035 81.904 26.57C82.0129 26.6105 82.1108 26.6759 82.19 26.761C82.2692 26.8461 82.3274 26.9484 82.36 27.06C82.4144 27.2493 82.4056 27.4511 82.335 27.635C82.2817 27.7772 82.1976 27.9059 82.0887 28.0117C81.9798 28.1176 81.8487 28.1979 81.705 28.247C81.242 28.395 80.972 28.281 80.974 28.223Z" fill="#251A51"/>
<path d="M72.4859 17.547C72.4309 17.417 73.006 17.115 73.732 17.308C74.458 17.501 74.812 18.042 74.701 18.128C74.594 18.228 74.1709 17.953 73.6009 17.811C73.0329 17.658 72.5289 17.692 72.4859 17.547Z" fill="#251A51"/>
<path d="M62.956 16.04C62.89 15.917 63.462 15.54 64.262 15.613C65.062 15.686 65.562 16.15 65.475 16.26C65.388 16.37 64.875 16.182 64.217 16.132C63.562 16.067 63.013 16.177 62.956 16.04Z" fill="#251A51"/>
<path d="M80.627 22.877C77.55 19.877 76.646 14.877 75.811 10.665C74.3713 11.6917 72.7011 12.3481 70.9476 12.5764C69.1942 12.8047 67.4115 12.5978 65.757 11.974C64.7231 13.1875 63.5162 14.2422 62.175 15.104C62.0009 15.2485 61.7981 15.3543 61.58 15.4147C61.362 15.475 61.1336 15.4884 60.91 15.454C60.393 15.298 60.163 14.706 60.041 14.181C59.6094 12.4992 59.6713 10.7286 60.219 9.08099C60.4993 8.26209 60.9494 7.5116 61.5398 6.87865C62.1302 6.2457 62.8475 5.74455 63.645 5.40798C65.4248 4.87237 67.3272 4.90278 69.089 5.49499C71.7845 6.19393 74.3703 7.26239 76.773 8.66999C79.127 10.049 81.389 11.87 82.388 14.413C83.387 16.956 83.382 21.887 80.974 23.171" fill="#251A51"/>
<path d="M73.3169 21.96C73.1739 21.949 73.084 21.569 73.117 21.11C73.15 20.651 73.293 20.287 73.436 20.297C73.579 20.307 73.669 20.688 73.636 21.147C73.603 21.606 73.4609 21.97 73.3169 21.96Z" fill="#251A51"/>
<path d="M64.466 20.83C64.323 20.819 64.233 20.439 64.266 19.98C64.299 19.521 64.4409 19.157 64.5849 19.167C64.7289 19.177 64.818 19.558 64.785 20.017C64.752 20.476 64.609 20.84 64.466 20.83Z" fill="#251A51"/>
<path d="M20.853 39.37C20.853 39.37 22.184 31.194 23.775 31.283C25.366 31.372 28.547 31.283 28.547 31.283C28.547 31.283 28.8119 23.507 29.6949 24.745C30.5779 25.983 30.857 36.445 27.448 41.463L20.853 39.37Z" fill="#F6AEA6"/>
<path d="M56.097 89.192C56.097 89.192 41.835 91.692 42.113 93.539C42.3549 94.8339 42.7866 96.0861 43.394 97.255L56.094 96.955L56.097 89.192Z" fill="#F6AEA6"/>
<path d="M71.577 97.704L71.469 95.73L42.094 93.93L32.242 67.578L0 69.351L11 97.851L71.577 97.704Z" fill="#6338A1"/>
<path opacity="0.41" d="M17.776 81.901C17.802 82.3729 17.9674 82.8265 18.2512 83.2045C18.535 83.5824 18.9244 83.8678 19.3704 84.0244C19.8163 84.181 20.2987 84.2019 20.7566 84.0844C21.2144 83.9669 21.627 83.7163 21.9424 83.3643C22.2578 83.0123 22.4618 82.5746 22.5285 82.1067C22.5952 81.6388 22.5216 81.1616 22.3172 80.7355C22.1127 80.3093 21.7864 79.9534 21.3797 79.7127C20.9729 79.4719 20.504 79.3572 20.032 79.383C19.7185 79.4001 19.4114 79.4788 19.1284 79.6147C18.8453 79.7505 18.5919 79.9407 18.3823 80.1746C18.1728 80.4084 18.0114 80.6812 17.9074 80.9775C17.8033 81.2737 17.7587 81.5875 17.776 81.901Z" fill="white"/>
<path opacity="0.41" d="M16.821 81.953C16.8572 82.614 17.0886 83.2495 17.486 83.779C17.8833 84.3084 18.4288 84.7082 19.0534 84.9277C19.678 85.1471 20.3536 85.1764 20.9948 85.0119C21.6361 84.8474 22.2141 84.4964 22.6559 84.0033C23.0976 83.5102 23.3832 82.8972 23.4766 82.2418C23.5699 81.5864 23.4667 80.918 23.1802 80.3213C22.8936 79.7245 22.4366 79.2261 21.8668 78.8891C21.2969 78.5521 20.64 78.3916 19.979 78.428C19.5402 78.452 19.1103 78.5623 18.7141 78.7524C18.3179 78.9426 17.963 79.209 17.6697 79.5363C17.3765 79.8637 17.1506 80.2456 17.0049 80.6602C16.8593 81.0749 16.7968 81.5142 16.821 81.953Z" fill="white"/>
</svg>
